<?xml version="1.0" encoding="utf-8"?>
<!-- Generator: Adobe Illustrator 27.0.1, SVG Export Plug-In . SVG Version: 6.00 Build 0)  -->
<svg version="1.1" id="Layer_1" xmlns="http://www.w3.org/2000/svg" xmlns:xlink="http://www.w3.org/1999/xlink" x="0px" y="0px"
	 viewBox="0 0 350 194" style="enable-background:new 0 0 350 194;" xml:space="preserve">
<style type="text/css">
	.st0{fill:#FF0000;}
</style>
<polygon class="st0" points="276.8,106.5 308.1,176.4 339.3,106.5 315.7,106.5 315.7,13.9 300.5,18.3 300.5,106.5 "/>
<polyline class="st0" points="21.4,193.6 21.4,0.2 6.2,0.2 6.2,193.6 "/>
<polyline points="6.2,193.6 6.2,0.2 -0.8,0.2 -0.8,193.6 "/>
<polyline points="28.5,193.6 28.5,0.2 21.4,0.2 21.4,193.6 "/>
<polyline class="st0" points="6.2,22.5 83.3,22.5 83.3,7.3 6.2,7.3 "/>
<polyline points="6.2,7.3 83.3,7.3 83.3,0.2 6.2,0.2 "/>
<polyline points="22.4,29.5 83.3,29.5 83.3,22.5 22.4,22.5 "/>
<polyline points="-0.8,193.6 26.5,193.6 26.5,186.5 -0.8,186.5 "/>
<g>
	<polyline class="st0" points="58.6,22.5 251.9,22.5 251.9,7.3 58.6,7.3 	"/>
	<polyline points="58.6,7.3 251.9,7.3 251.9,0.2 58.6,0.2 	"/>
	<polyline points="58.6,29.5 251.9,29.5 251.9,22.5 58.6,22.5 	"/>
</g>
<g>
	<polyline class="st0" points="156.7,22.5 322.7,22.5 322.7,7.3 156.7,7.3 	"/>
	<polyline points="156.7,7.3 322.7,7.3 322.7,0.2 156.7,0.2 	"/>
	<polyline points="156.7,29.5 300.1,29.5 300.1,22.5 156.7,22.5 	"/>
</g>
<polygon points="308.1,193.6 350.1,99.7 322.7,99.7 322.7,3.7 315.7,3.7 315.7,106.5 339.3,106.5 308.1,176.4 276.8,106.5 
	300.5,106.5 300.5,22.6 293.4,22.6 293.4,99.7 266.1,99.7 "/>
</svg>
