<?xml version="1.0" encoding="utf-8"?>
<!-- Generator: Adobe Illustrator 27.0.1, SVG Export Plug-In . SVG Version: 6.00 Build 0)  -->
<svg version="1.1" id="Layer_1" xmlns="http://www.w3.org/2000/svg" xmlns:xlink="http://www.w3.org/1999/xlink" x="0px" y="0px"
	 viewBox="0 0 360 84" style="enable-background:new 0 0 360 84;" xml:space="preserve">
<style type="text/css">
	.st0{fill:#FF0000;}
</style>
<g>
	<polygon class="st0" points="272.9,73.2 342.8,42 272.9,10.8 272.9,34.4 189,34.4 189,49.6 272.9,49.6 	"/>
	<polygon class="st0" points="191.1,49.6 191.1,34.4 119.4,34.4 95.5,8.9 16.4,8.9 48.1,41.9 16.4,75.1 95.5,75.1 119.4,49.6 	"/>
	<polygon points="191.1,49.6 119.4,49.6 95.5,75.1 16.4,75.1 48.1,41.9 16.4,8.9 95.5,8.9 119.4,34.4 191.1,34.4 191.1,27.3 
		122.3,27.3 98.4,1.9 0,1.9 38.5,42 0,82.1 98.4,82.1 122.3,56.7 191.1,56.7 	"/>
	<polygon points="360,41.9 266.1,0 266.1,27.3 189,27.3 189,34.4 272.9,34.4 272.9,10.8 342.8,42 272.9,73.2 272.9,49.6 189,49.6 
		189,56.7 266.1,56.7 266.1,84 	"/>
</g>
</svg>
