<?xml version="1.0" encoding="utf-8"?>
<!-- Generator: Adobe Illustrator 27.0.1, SVG Export Plug-In . SVG Version: 6.00 Build 0)  -->
<svg version="1.1" id="Layer_1" xmlns="http://www.w3.org/2000/svg" xmlns:xlink="http://www.w3.org/1999/xlink" x="0px" y="0px"
	 viewBox="0 0 750 344" style="enable-background:new 0 0 750 344;" xml:space="preserve">
<style type="text/css">
	.st0{fill:#FF0000;stroke:#000000;stroke-width:7;stroke-miterlimit:10;}
</style>
<path class="st0" d="M738.6,301.5l-121.8,36.4v-25.3H177.2l-35.6,25.3H9.6l52.2-36.4L9.6,265.2h132l35.6,25.3h439.6v-25.3
	L738.6,301.5z"/>
<g>
	<path class="st0" d="M167.7,4.5v87.3l-19.4,28.7l19.4,28.9v85.5H9.6V4.5H167.7z M53.8,43.9v57h72.4v-57H53.8z M53.8,138.4v57h72.4
		v-57H53.8z"/>
	<path class="st0" d="M316.5,138.4h-72.4v96.4h-44.3V4.5H358v230.4h-41.6V138.4z M244.1,43.9v57h72.4v-57H244.1z"/>
	<path class="st0" d="M460.9,100.9h87.4v134H390.1V4.5h158.2v39.5H434.4v151.4h72.4v-57h-45.9V100.9z"/>
	<path class="st0" d="M580.4,138.4V4.5h158.2v39.5H624.7v57h113.9v134H580.4v-39.5H697v-57H580.4z"/>
</g>
</svg>
