<?xml version="1.0" encoding="utf-8"?>
<!-- Generator: Adobe Illustrator 27.0.1, SVG Export Plug-In . SVG Version: 6.00 Build 0)  -->
<svg version="1.1" id="Layer_1" xmlns="http://www.w3.org/2000/svg" xmlns:xlink="http://www.w3.org/1999/xlink" x="0px" y="0px"
	 viewBox="0 0 900 130" style="enable-background:new 0 0 900 130;" xml:space="preserve">
<style type="text/css">
	.st0{fill:#D5EDEA;stroke:#231F20;stroke-width:1.9722;stroke-miterlimit:10;}
	.st1{fill:#A5CD39;stroke:#231F20;stroke-width:2;stroke-miterlimit:10;}
	.st2{fill:#008ED3;stroke:#231F20;stroke-width:2;stroke-miterlimit:10;}
	.st3{fill:#231F20;}
	.st4{fill:#231F20;stroke:#D5EDEA;stroke-width:1.9722;stroke-miterlimit:10;}
	.st5{fill:#D1AF4F;}
	.st6{fill:#E7C057;}
	.st7{fill:#A9895B;}
	.st8{fill:#B99664;}
	.st9{fill:#AB9040;}
	.st10{clip-path:url(#SVGID_00000062151016207696849410000011285999896726319785_);}
	.st11{fill:#69502E;}
	.st12{fill:#FFD300;}
	.st13{fill:#B8E4FA;}
	.st14{fill:#C6E9FA;}
	.st15{fill:#9CDBF8;}
	.st16{fill:#FFFFFF;}
	.st17{fill:#FF0000;}
</style>
<g>
	<rect x="-0.2" y="4.3" class="st0" width="125" height="125"/>
</g>
<rect x="702.6" y="4.3" class="st0" width="72.2" height="125"/>
<rect x="630.4" y="4.3" class="st0" width="72.2" height="125"/>
<rect x="558.2" y="4.3" class="st0" width="72.2" height="125"/>
<rect x="485.9" y="4.3" class="st0" width="72.2" height="125"/>
<rect x="413.7" y="4.3" class="st0" width="72.2" height="125"/>
<rect x="341.5" y="4.3" class="st0" width="72.2" height="125"/>
<rect x="269.3" y="4.3" class="st0" width="72.2" height="125"/>
<rect x="197" y="4.3" class="st0" width="72.2" height="125"/>
<rect x="124.8" y="4.3" class="st0" width="72.2" height="125"/>
<rect x="702.6" y="4.3" class="st1" width="72.2" height="35"/>
<rect x="630.4" y="4.3" class="st1" width="72.2" height="35"/>
<rect x="485.9" y="4.3" class="st1" width="72.2" height="35"/>
<rect x="269.3" y="4.3" class="st2" width="72.2" height="35"/>
<rect x="124.8" y="4.3" class="st2" width="72.2" height="35"/>
<g>
	<path class="st3" d="M155.7,117.7c0,0.3,0,0.5-0.1,0.7s-0.2,0.4-0.4,0.5s-0.4,0.3-0.6,0.4s-0.5,0.1-0.8,0.2l-0.1,0.9c0,0,0,0,0,0.1
		s0,0-0.1,0h-0.1c0,0-0.1,0-0.2,0c-0.1,0-0.2,0-0.2,0c-0.1,0-0.1,0-0.1,0s-0.1,0-0.1-0.1v-0.1l0.1-0.9c-0.1,0-0.2,0-0.4-0.1
		c-0.1,0-0.2-0.1-0.3-0.1s-0.2-0.1-0.2-0.1c-0.1,0-0.1-0.1-0.1-0.1l-0.1-0.1c0-0.1,0-0.2,0-0.3c0-0.1,0-0.2,0-0.2v-0.1
		c0,0,0-0.1,0.1-0.1c0,0,0,0,0.1,0c0,0,0.1,0,0.2,0.1s0.2,0.1,0.3,0.1s0.3,0.1,0.4,0.1c0.2,0,0.4,0.1,0.6,0.1c0.3,0,0.6-0.1,0.8-0.2
		s0.3-0.3,0.3-0.5c0-0.1,0-0.3-0.1-0.3s-0.2-0.2-0.3-0.2c-0.1-0.1-0.3-0.1-0.4-0.2c-0.2-0.1-0.3-0.1-0.5-0.2s-0.3-0.1-0.5-0.2
		s-0.3-0.2-0.4-0.3s-0.2-0.3-0.3-0.4c-0.1-0.2-0.1-0.4-0.1-0.6s0-0.4,0.1-0.6s0.2-0.3,0.3-0.5s0.3-0.2,0.5-0.3
		c0.2-0.1,0.4-0.1,0.7-0.2l0.1-0.9c0,0,0,0,0-0.1c0,0,0,0,0.1,0h0.1c0,0,0.1,0,0.2,0c0.1,0,0.2,0,0.2,0c0.1,0,0.1,0,0.1,0
		s0.1,0,0.1,0.1s0,0.1,0,0.1l-0.1,0.8c0.1,0,0.2,0,0.3,0s0.2,0,0.3,0.1c0.1,0,0.2,0.1,0.2,0.1c0.1,0,0.1,0.1,0.1,0.1s0,0.1,0.1,0.1
		v0.1v0.1c0,0.1,0,0.1,0,0.2s0,0.2,0,0.2c0,0.1,0,0.1,0,0.1v0.1c0,0,0,0-0.1,0c0,0-0.1,0-0.2-0.1s-0.2-0.1-0.3-0.1s-0.2-0.1-0.4-0.1
		c-0.1,0-0.3-0.1-0.5-0.1s-0.3,0-0.4,0s-0.2,0.1-0.3,0.1s-0.1,0.1-0.1,0.2s0,0.2,0,0.2c0,0.1,0,0.3,0.1,0.3s0.2,0.2,0.3,0.2
		s0.3,0.1,0.4,0.2c0.2,0.1,0.3,0.1,0.5,0.2s0.3,0.1,0.5,0.2s0.3,0.2,0.4,0.3c0.1,0.1,0.2,0.3,0.3,0.4
		C155.7,117.3,155.7,117.5,155.7,117.7z"/>
	<path class="st3" d="M160.7,117.8c0,0.1,0,0.3,0,0.3c0,0.1-0.1,0.1-0.1,0.1H160v1v0.1c0,0,0,0-0.1,0.1s-0.1,0-0.2,0
		c-0.1,0-0.2,0-0.3,0s-0.2,0-0.3,0s-0.1,0-0.2,0s-0.1,0-0.1-0.1c0,0,0,0,0-0.1v-1h-2.2h-0.1c0,0-0.1,0-0.1-0.1c0,0,0-0.1,0-0.2
		s0-0.2,0-0.3c0-0.1,0-0.2,0-0.2c0-0.1,0-0.1,0-0.2s0-0.1,0-0.2s0-0.1,0.1-0.2l1.8-3.1c0,0,0,0,0.1-0.1h0.1c0.1,0,0.1,0,0.2,0
		s0.2,0,0.4,0c0.1,0,0.3,0,0.4,0c0.1,0,0.2,0,0.3,0s0.1,0,0.1,0.1s0,0.1,0,0.1v3.4h0.5c0,0,0.1,0,0.1,0.1
		C160.6,117.5,160.7,117.7,160.7,117.8z M158.9,114.7L158.9,114.7l-1.5,2.6h1.5V114.7z"/>
	<path class="st3" d="M165.3,116.6c0,0.5,0,0.9-0.1,1.2s-0.2,0.7-0.4,0.9c-0.2,0.3-0.4,0.5-0.6,0.6s-0.6,0.2-1,0.2s-0.7-0.1-1-0.2
		s-0.5-0.3-0.6-0.6c-0.1-0.2-0.3-0.6-0.3-0.9c-0.1-0.4-0.1-0.8-0.1-1.2c0-0.5,0-0.9,0.1-1.2c0.1-0.4,0.2-0.7,0.4-0.9
		s0.4-0.5,0.6-0.6c0.3-0.1,0.6-0.2,1-0.2s0.7,0.1,1,0.2s0.5,0.3,0.6,0.6c0.1,0.2,0.3,0.6,0.3,0.9
		C165.3,115.7,165.3,116.1,165.3,116.6z M164.2,116.7c0-0.3,0-0.5,0-0.7s0-0.4-0.1-0.5c0-0.2-0.1-0.3-0.1-0.4s-0.1-0.2-0.2-0.3
		c-0.1-0.1-0.1-0.1-0.2-0.1s-0.2,0-0.3,0c-0.2,0-0.3,0-0.4,0.1c-0.1,0.1-0.2,0.2-0.3,0.4c-0.1,0.2-0.1,0.4-0.1,0.6s0,0.5,0,0.9
		s0,0.7,0,1s0.1,0.5,0.2,0.6c0.1,0.2,0.2,0.3,0.3,0.3c0.1,0.1,0.2,0.1,0.4,0.1c0.1,0,0.2,0,0.3-0.1c0.1,0,0.2-0.1,0.2-0.2
		c0.1-0.1,0.1-0.2,0.2-0.3s0.1-0.2,0.1-0.4s0-0.3,0.1-0.5C164.2,117.1,164.2,116.9,164.2,116.7z"/>
	<path class="st3" d="M170.1,116.6c0,0.5,0,0.9-0.1,1.2s-0.2,0.7-0.4,0.9c-0.2,0.3-0.4,0.5-0.6,0.6s-0.6,0.2-1,0.2s-0.7-0.1-1-0.2
		s-0.5-0.3-0.6-0.6c-0.1-0.2-0.3-0.6-0.3-0.9c-0.1-0.4-0.1-0.8-0.1-1.2c0-0.5,0-0.9,0.1-1.2c0.1-0.4,0.2-0.7,0.4-0.9
		s0.4-0.5,0.6-0.6c0.3-0.1,0.6-0.2,1-0.2s0.7,0.1,1,0.2s0.5,0.3,0.6,0.6c0.1,0.2,0.3,0.6,0.3,0.9C170,115.7,170.1,116.1,170.1,116.6
		z M168.9,116.7c0-0.3,0-0.5,0-0.7s0-0.4-0.1-0.5c0-0.2-0.1-0.3-0.1-0.4s-0.1-0.2-0.2-0.3c-0.1-0.1-0.1-0.1-0.2-0.1s-0.2,0-0.3,0
		c-0.2,0-0.3,0-0.4,0.1c-0.1,0.1-0.2,0.2-0.3,0.4c-0.1,0.2-0.1,0.4-0.1,0.6s0,0.5,0,0.9s0,0.7,0,1s0.1,0.5,0.2,0.6
		c0.1,0.2,0.2,0.3,0.3,0.3c0.1,0.1,0.2,0.1,0.4,0.1c0.1,0,0.2,0,0.3-0.1c0.1,0,0.2-0.1,0.2-0.2c0.1-0.1,0.1-0.2,0.2-0.3
		s0.1-0.2,0.1-0.4s0-0.3,0.1-0.5C168.9,117.1,168.9,116.9,168.9,116.7z"/>
</g>
<g>
	<g>
		<path class="st3" d="M220.1,115.5c0,0.3,0,0.6-0.1,0.8s-0.2,0.5-0.4,0.6c-0.2,0.2-0.4,0.3-0.7,0.4s-0.6,0.1-1,0.1h-0.5v1.8v0.1
			c0,0-0.1,0-0.1,0.1s-0.1,0-0.2,0s-0.2,0-0.3,0s-0.2,0-0.3,0s-0.1,0-0.2,0s-0.1,0-0.1-0.1s0,0,0-0.1v-5.1c0-0.1,0-0.2,0.1-0.3
			c0.1-0.1,0.2-0.1,0.3-0.1h1.3c0.1,0,0.3,0,0.4,0c0.1,0,0.3,0,0.4,0.1c0.2,0,0.3,0.1,0.5,0.2s0.3,0.2,0.4,0.3
			c0.1,0.1,0.2,0.3,0.3,0.5C220.1,115.1,220.1,115.3,220.1,115.5z M218.9,115.6c0-0.2,0-0.4-0.1-0.5s-0.2-0.2-0.3-0.3
			s-0.2-0.1-0.3-0.1s-0.2,0-0.3,0h-0.5v1.9h0.5c0.2,0,0.3,0,0.5-0.1c0.1,0,0.2-0.1,0.3-0.2s0.1-0.2,0.2-0.3
			C218.9,115.9,218.9,115.7,218.9,115.6z"/>
		<path class="st3" d="M225.2,119c0,0.1,0.1,0.2,0.1,0.3s0,0.1,0,0.1s-0.1,0-0.2,0.1c-0.1,0-0.2,0-0.3,0s-0.3,0-0.3,0
			c-0.1,0-0.1,0-0.2,0c0,0-0.1,0-0.1-0.1s0-0.1,0-0.1l-0.4-1.1h-2.1l-0.4,1.1v0.1c0,0,0,0-0.1,0.1c0,0-0.1,0-0.2,0s-0.2,0-0.3,0
			s-0.2,0-0.3,0s-0.1,0-0.2-0.1v-0.1c0,0,0-0.1,0.1-0.2l1.8-5c0,0,0-0.1,0.1-0.1l0.1-0.1c0.1,0,0.1,0,0.2,0c0.1,0,0.2,0,0.4,0
			s0.3,0,0.4,0c0.1,0,0.2,0,0.2,0c0.1,0,0.1,0,0.1,0.1s0,0.1,0.1,0.1L225.2,119z M222.6,114.9L222.6,114.9l-0.8,2.4h1.6L222.6,114.9
			z"/>
		<path class="st3" d="M227.8,117.3v2v0.1c0,0-0.1,0-0.1,0.1s-0.1,0-0.2,0c-0.1,0-0.2,0-0.3,0s-0.2,0-0.3,0s-0.1,0-0.2,0
			c0,0-0.1,0-0.1-0.1s0,0,0-0.1v-2l-1.6-3.1c-0.1-0.1-0.1-0.2-0.1-0.3c0-0.1,0-0.1,0-0.1s0.1,0,0.2-0.1c0.1,0,0.2,0,0.4,0
			c0.1,0,0.2,0,0.3,0s0.1,0,0.2,0c0,0,0.1,0,0.1,0.1c0,0,0,0.1,0.1,0.1l0.6,1.4c0.1,0.1,0.1,0.3,0.2,0.4s0.1,0.3,0.2,0.5l0,0
			c0.1-0.2,0.1-0.3,0.2-0.5s0.1-0.3,0.2-0.4l0.6-1.4c0,0,0-0.1,0.1-0.1l0.1-0.1c0,0,0.1,0,0.2,0s0.2,0,0.3,0c0.2,0,0.3,0,0.4,0
			c0.1,0,0.2,0,0.2,0.1v0.1c0,0-0.1,0.1-0.1,0.2L227.8,117.3z"/>
		<path class="st3" d="M236.1,117.7c0,0.3,0,0.5-0.1,0.7s-0.2,0.4-0.4,0.5s-0.4,0.3-0.6,0.4s-0.5,0.1-0.8,0.2l-0.1,0.9
			c0,0,0,0,0,0.1s0,0-0.1,0h-0.1c0,0-0.1,0-0.2,0c-0.1,0-0.2,0-0.2,0c-0.1,0-0.1,0-0.1,0s-0.1,0-0.1-0.1v-0.1l0.1-0.9
			c-0.1,0-0.2,0-0.4-0.1c-0.1,0-0.2-0.1-0.3-0.1s-0.2-0.1-0.2-0.1c-0.1,0-0.1-0.1-0.1-0.1l-0.1-0.1c0-0.1,0-0.2,0-0.3
			c0-0.1,0-0.2,0-0.2v-0.1c0,0,0-0.1,0.1-0.1c0,0,0,0,0.1,0c0,0,0.1,0,0.2,0.1s0.2,0.1,0.3,0.1s0.3,0.1,0.4,0.1
			c0.2,0,0.4,0.1,0.6,0.1c0.3,0,0.6-0.1,0.8-0.2s0.3-0.3,0.3-0.5c0-0.1,0-0.3-0.1-0.3s-0.2-0.2-0.3-0.2c-0.1-0.1-0.3-0.1-0.4-0.2
			c-0.2-0.1-0.3-0.1-0.5-0.2s-0.3-0.1-0.5-0.2s-0.3-0.2-0.4-0.3s-0.2-0.3-0.3-0.4c-0.1-0.2-0.1-0.4-0.1-0.6s0-0.4,0.1-0.6
			s0.2-0.3,0.3-0.5s0.3-0.2,0.5-0.3c0.2-0.1,0.4-0.1,0.7-0.2l0.1-0.9c0,0,0,0,0-0.1c0,0,0,0,0.1,0h0.1c0,0,0.1,0,0.2,0
			c0.1,0,0.2,0,0.2,0c0.1,0,0.1,0,0.1,0s0.1,0,0.1,0.1s0,0.1,0,0.1l-0.1,0.8c0.1,0,0.2,0,0.3,0s0.2,0,0.3,0.1c0.1,0,0.2,0.1,0.2,0.1
			c0.1,0,0.1,0.1,0.1,0.1s0,0.1,0.1,0.1v0.1v0.1c0,0.1,0,0.1,0,0.2s0,0.2,0,0.2c0,0.1,0,0.1,0,0.1v0.1c0,0,0,0-0.1,0
			c0,0-0.1,0-0.2-0.1s-0.2-0.1-0.3-0.1s-0.2-0.1-0.4-0.1c-0.1,0-0.3-0.1-0.5-0.1s-0.3,0-0.4,0s-0.2,0.1-0.3,0.1s-0.1,0.1-0.1,0.2
			s0,0.2,0,0.2c0,0.1,0,0.3,0.1,0.3s0.2,0.2,0.3,0.2s0.3,0.1,0.4,0.2c0.2,0.1,0.3,0.1,0.5,0.2s0.3,0.1,0.5,0.2s0.3,0.2,0.4,0.3
			c0.1,0.1,0.2,0.3,0.3,0.4C236.1,117.3,236.1,117.5,236.1,117.7z"/>
		<path class="st3" d="M240.8,119c0,0.1,0,0.2,0,0.2c0,0.1,0,0.1,0,0.1s0,0.1-0.1,0.1s0,0-0.1,0h-3.1c0,0,0,0-0.1,0s0,0-0.1-0.1
			v-0.1c0-0.1,0-0.1,0-0.2s0-0.2,0-0.2c0-0.1,0-0.1,0-0.1s0-0.1,0.1-0.1c0,0,0,0,0.1,0h1.1v-3.7l-0.9,0.5c-0.1,0-0.1,0.1-0.2,0.1
			h-0.1c0,0,0-0.1-0.1-0.1s0-0.1,0-0.3c0-0.1,0-0.1,0-0.2v-0.1v-0.1c0,0,0,0,0.1-0.1l1.2-0.8c0,0,0,0,0.1,0h0.1h0.1
			c0.1,0,0.1,0,0.2,0c0.1,0,0.2,0,0.3,0s0.1,0,0.2,0h0.1c0,0,0,0,0,0.1v4.7h0.9h0.1c0,0,0,0,0.1,0.1v0.1
			C240.8,118.9,240.8,118.9,240.8,119z"/>
		<path class="st3" d="M245.7,116.6c0,0.5,0,0.9-0.1,1.2s-0.2,0.7-0.4,0.9c-0.2,0.3-0.4,0.5-0.6,0.6s-0.6,0.2-1,0.2s-0.7-0.1-1-0.2
			s-0.5-0.3-0.6-0.6c-0.1-0.2-0.3-0.6-0.3-0.9c-0.1-0.4-0.1-0.8-0.1-1.2c0-0.5,0-0.9,0.1-1.2c0.1-0.4,0.2-0.7,0.4-0.9
			s0.4-0.5,0.6-0.6c0.3-0.1,0.6-0.2,1-0.2s0.7,0.1,1,0.2s0.5,0.3,0.6,0.6c0.1,0.2,0.3,0.6,0.3,0.9
			C245.7,115.7,245.7,116.1,245.7,116.6z M244.6,116.7c0-0.3,0-0.5,0-0.7s0-0.4-0.1-0.5c0-0.2-0.1-0.3-0.1-0.4s-0.1-0.2-0.2-0.3
			c-0.1-0.1-0.1-0.1-0.2-0.1s-0.2,0-0.3,0c-0.2,0-0.3,0-0.4,0.1c-0.1,0.1-0.2,0.2-0.3,0.4c-0.1,0.2-0.1,0.4-0.1,0.6s0,0.5,0,0.9
			s0,0.7,0,1s0.1,0.5,0.2,0.6c0.1,0.2,0.2,0.3,0.3,0.3c0.1,0.1,0.2,0.1,0.4,0.1c0.1,0,0.2,0,0.3-0.1c0.1,0,0.2-0.1,0.2-0.2
			c0.1-0.1,0.1-0.2,0.2-0.3s0.1-0.2,0.1-0.4s0-0.3,0.1-0.5C244.6,117.1,244.6,116.9,244.6,116.7z"/>
		<path class="st3" d="M250.5,116.6c0,0.5,0,0.9-0.1,1.2s-0.2,0.7-0.4,0.9c-0.2,0.3-0.4,0.5-0.6,0.6s-0.6,0.2-1,0.2s-0.7-0.1-1-0.2
			s-0.5-0.3-0.6-0.6c-0.1-0.2-0.3-0.6-0.3-0.9c-0.1-0.4-0.1-0.8-0.1-1.2c0-0.5,0-0.9,0.1-1.2c0.1-0.4,0.2-0.7,0.4-0.9
			s0.4-0.5,0.6-0.6c0.3-0.1,0.6-0.2,1-0.2s0.7,0.1,1,0.2s0.5,0.3,0.6,0.6c0.1,0.2,0.3,0.6,0.3,0.9
			C250.4,115.7,250.5,116.1,250.5,116.6z M249.3,116.7c0-0.3,0-0.5,0-0.7s0-0.4-0.1-0.5c0-0.2-0.1-0.3-0.1-0.4s-0.1-0.2-0.2-0.3
			c-0.1-0.1-0.1-0.1-0.2-0.1s-0.2,0-0.3,0c-0.2,0-0.3,0-0.4,0.1c-0.1,0.1-0.2,0.2-0.3,0.4c-0.1,0.2-0.1,0.4-0.1,0.6s0,0.5,0,0.9
			s0,0.7,0,1s0.1,0.5,0.2,0.6c0.1,0.2,0.2,0.3,0.3,0.3c0.1,0.1,0.2,0.1,0.4,0.1c0.1,0,0.2,0,0.3-0.1c0.1,0,0.2-0.1,0.2-0.2
			c0.1-0.1,0.1-0.2,0.2-0.3s0.1-0.2,0.1-0.4s0-0.3,0.1-0.5C249.3,117.1,249.3,116.9,249.3,116.7z"/>
	</g>
</g>
<g>
	<path class="st3" d="M300.2,117.7c0,0.3,0,0.5-0.1,0.7s-0.2,0.4-0.4,0.5s-0.4,0.3-0.6,0.4s-0.5,0.1-0.8,0.2l-0.1,0.9c0,0,0,0,0,0.1
		s0,0-0.1,0H298c0,0-0.1,0-0.2,0s-0.2,0-0.2,0c-0.1,0-0.1,0-0.1,0s-0.1,0-0.1-0.1v-0.1l0.1-0.9c-0.1,0-0.2,0-0.4-0.1
		c-0.1,0-0.2-0.1-0.3-0.1c-0.1,0-0.2-0.1-0.2-0.1c-0.1,0-0.1-0.1-0.1-0.1l-0.1-0.1c0-0.1,0-0.2,0-0.3c0-0.1,0-0.2,0-0.2v-0.1
		c0,0,0-0.1,0.1-0.1c0,0,0,0,0.1,0c0,0,0.1,0,0.2,0.1s0.2,0.1,0.3,0.1s0.3,0.1,0.4,0.1c0.2,0,0.4,0.1,0.6,0.1c0.3,0,0.6-0.1,0.8-0.2
		c0.2-0.1,0.3-0.3,0.3-0.5c0-0.1,0-0.3-0.1-0.3s-0.2-0.2-0.3-0.2c-0.1-0.1-0.3-0.1-0.4-0.2c-0.2-0.1-0.3-0.1-0.5-0.2
		s-0.3-0.1-0.5-0.2s-0.3-0.2-0.4-0.3s-0.2-0.3-0.3-0.4c-0.1-0.2-0.1-0.4-0.1-0.6s0-0.4,0.1-0.6s0.2-0.3,0.3-0.5s0.3-0.2,0.5-0.3
		c0.2-0.1,0.4-0.1,0.7-0.2l0.1-0.9c0,0,0,0,0-0.1c0,0,0,0,0.1,0h0.1c0,0,0.1,0,0.2,0s0.2,0,0.2,0c0.1,0,0.1,0,0.1,0s0.1,0,0.1,0.1
		s0,0.1,0,0.1l-0.1,0.8c0.1,0,0.2,0,0.3,0s0.2,0,0.3,0.1c0.1,0,0.2,0.1,0.2,0.1c0.1,0,0.1,0.1,0.1,0.1s0,0.1,0.1,0.1v0.1v0.1
		c0,0.1,0,0.1,0,0.2s0,0.2,0,0.2c0,0.1,0,0.1,0,0.1v0.1c0,0,0,0-0.1,0c0,0-0.1,0-0.2-0.1s-0.2-0.1-0.3-0.1c-0.1,0-0.2-0.1-0.4-0.1
		c-0.1,0-0.3-0.1-0.5-0.1s-0.3,0-0.4,0s-0.2,0.1-0.3,0.1s-0.1,0.1-0.1,0.2s0,0.2,0,0.2c0,0.1,0,0.3,0.1,0.3s0.2,0.2,0.3,0.2
		s0.3,0.1,0.4,0.2c0.2,0.1,0.3,0.1,0.5,0.2s0.3,0.1,0.5,0.2s0.3,0.2,0.4,0.3c0.1,0.1,0.2,0.3,0.3,0.4
		C300.1,117.3,300.2,117.5,300.2,117.7z"/>
	<path class="st3" d="M304.9,117.8c0,0.3-0.1,0.5-0.2,0.8s-0.3,0.4-0.5,0.6s-0.4,0.3-0.7,0.3c-0.3,0.1-0.6,0.1-0.9,0.1
		c-0.2,0-0.4,0-0.5,0c-0.2,0-0.3-0.1-0.5-0.1s-0.2-0.1-0.3-0.1s-0.1-0.1-0.2-0.1s0,0-0.1-0.1v-0.1V119c0-0.1,0-0.1,0-0.2
		s0-0.2,0-0.3c0-0.1,0.1-0.1,0.1-0.1s0.1,0,0.2,0.1c0.1,0,0.2,0.1,0.3,0.1c0.1,0,0.2,0.1,0.4,0.1c0.1,0,0.3,0.1,0.5,0.1
		s0.3,0,0.4-0.1s0.2-0.1,0.3-0.2c0.1-0.1,0.2-0.2,0.2-0.3c0-0.1,0.1-0.2,0.1-0.3c0-0.1,0-0.2-0.1-0.4s-0.1-0.2-0.2-0.3
		c-0.1-0.1-0.2-0.1-0.4-0.2c-0.2,0-0.3-0.1-0.5-0.1h-0.5h-0.1c0,0,0,0-0.1-0.1s0-0.1,0-0.1c0-0.1,0-0.1,0-0.2s0-0.2,0-0.2
		c0-0.1,0-0.1,0-0.1s0,0,0.1-0.1s0.1,0,0.1,0h0.5c0.2,0,0.3,0,0.5-0.1c0.1,0,0.2-0.1,0.3-0.2s0.2-0.2,0.2-0.3c0-0.1,0.1-0.2,0.1-0.3
		c0-0.1,0-0.2,0-0.3c0-0.1-0.1-0.2-0.1-0.2c-0.1-0.1-0.1-0.1-0.2-0.1s-0.2-0.1-0.4-0.1c-0.2,0-0.3,0-0.4,0.1c-0.1,0-0.3,0.1-0.4,0.1
		c-0.1,0.1-0.2,0.1-0.3,0.2c-0.1,0-0.1,0.1-0.2,0.1c0,0,0,0-0.1,0c0,0,0,0,0-0.1s0-0.1,0-0.1s0-0.1,0-0.2s0-0.1,0-0.2v-0.1v-0.1
		c0,0,0,0,0.1-0.1c0,0,0.1-0.1,0.2-0.1s0.2-0.1,0.3-0.2s0.3-0.1,0.5-0.1s0.4-0.1,0.6-0.1c0.3,0,0.5,0,0.7,0.1s0.4,0.2,0.5,0.3
		c0.1,0.1,0.3,0.3,0.3,0.4c0.1,0.2,0.1,0.4,0.1,0.6s0,0.3-0.1,0.5s-0.1,0.3-0.2,0.4s-0.2,0.2-0.3,0.3c-0.1,0.1-0.3,0.1-0.4,0.2l0,0
		c0.2,0,0.4,0.1,0.5,0.2c0.2,0.1,0.3,0.2,0.4,0.3c0.1,0.1,0.2,0.2,0.3,0.4C304.9,117.5,304.9,117.6,304.9,117.8z"/>
	<path class="st3" d="M309.6,117.6c0,0.3-0.1,0.6-0.2,0.8c-0.1,0.2-0.3,0.4-0.5,0.6s-0.4,0.3-0.7,0.4s-0.6,0.1-0.9,0.1
		c-0.2,0-0.3,0-0.5,0s-0.3,0-0.4-0.1c-0.1,0-0.2-0.1-0.3-0.1c-0.1,0-0.1-0.1-0.2-0.1c0,0,0,0-0.1-0.1s0-0.1,0-0.1v-0.1
		c0,0,0-0.1,0-0.2s0-0.2,0-0.2c0-0.1,0-0.1,0-0.1v-0.1c0,0,0,0,0.1,0h0.1c0.1,0,0.1,0.1,0.2,0.1s0.2,0.1,0.4,0.1
		c0.1,0,0.3,0.1,0.5,0.1s0.3,0,0.5-0.1c0.1,0,0.3-0.1,0.4-0.2s0.2-0.2,0.2-0.3s0.1-0.3,0.1-0.4s0-0.3-0.1-0.4c0-0.1-0.1-0.2-0.2-0.3
		s-0.2-0.1-0.4-0.2s-0.3-0.1-0.5-0.1s-0.3,0-0.5,0s-0.3,0-0.4,0s-0.1,0-0.2-0.1c0,0-0.1-0.1-0.1-0.2v-2.5c0-0.1,0-0.2,0.1-0.3
		c0-0.1,0.1-0.1,0.2-0.1h2.7h0.1c0,0,0,0,0.1,0.1c0,0,0,0.1,0,0.2s0,0.1,0,0.2c0,0.2,0,0.3,0,0.4s-0.1,0.1-0.1,0.1h-2v1.2
		c0.1,0,0.2,0,0.3,0c0.1,0,0.2,0,0.3,0c0.3,0,0.6,0,0.8,0.1c0.2,0.1,0.4,0.2,0.6,0.3c0.2,0.1,0.3,0.3,0.4,0.5
		C309.6,117.1,309.6,117.3,309.6,117.6z"/>
	<path class="st3" d="M314.5,116.6c0,0.5,0,0.9-0.1,1.2s-0.2,0.7-0.4,0.9c-0.2,0.3-0.4,0.5-0.6,0.6s-0.6,0.2-1,0.2s-0.7-0.1-1-0.2
		s-0.5-0.3-0.6-0.6c-0.1-0.2-0.3-0.6-0.3-0.9c-0.1-0.4-0.1-0.8-0.1-1.2c0-0.5,0-0.9,0.1-1.2c0.1-0.4,0.2-0.7,0.4-0.9
		s0.4-0.5,0.6-0.6c0.3-0.1,0.6-0.2,1-0.2s0.7,0.1,1,0.2s0.5,0.3,0.6,0.6c0.1,0.2,0.3,0.6,0.3,0.9
		C314.5,115.7,314.5,116.1,314.5,116.6z M313.4,116.7c0-0.3,0-0.5,0-0.7s0-0.4-0.1-0.5c0-0.2-0.1-0.3-0.1-0.4s-0.1-0.2-0.2-0.3
		c-0.1-0.1-0.1-0.1-0.2-0.1s-0.2,0-0.3,0c-0.2,0-0.3,0-0.4,0.1s-0.2,0.2-0.3,0.4c-0.1,0.2-0.1,0.4-0.1,0.6s0,0.5,0,0.9s0,0.7,0,1
		s0.1,0.5,0.2,0.6c0.1,0.2,0.2,0.3,0.3,0.3c0.1,0.1,0.2,0.1,0.4,0.1c0.1,0,0.2,0,0.3-0.1c0.1,0,0.2-0.1,0.2-0.2
		c0.1-0.1,0.1-0.2,0.2-0.3s0.1-0.2,0.1-0.4s0-0.3,0.1-0.5C313.4,117.1,313.4,116.9,313.4,116.7z"/>
</g>
<g>
	<path class="st3" d="M516.8,117.7c0,0.3,0,0.5-0.1,0.7s-0.2,0.4-0.4,0.5s-0.4,0.3-0.6,0.4c-0.2,0.1-0.5,0.1-0.8,0.2l-0.1,0.9
		c0,0,0,0,0,0.1s0,0-0.1,0h-0.1c0,0-0.1,0-0.2,0c-0.1,0-0.2,0-0.2,0c-0.1,0-0.1,0-0.1,0s-0.1,0-0.1-0.1v-0.1l0.1-0.9
		c-0.1,0-0.2,0-0.4-0.1c-0.1,0-0.2-0.1-0.3-0.1s-0.2-0.1-0.2-0.1c-0.1,0-0.1-0.1-0.1-0.1l-0.1-0.1c0-0.1,0-0.2,0-0.3
		c0-0.1,0-0.2,0-0.2v-0.1c0,0,0-0.1,0.1-0.1c0,0,0,0,0.1,0c0,0,0.1,0,0.2,0.1c0.1,0,0.2,0.1,0.3,0.1c0.1,0.1,0.3,0.1,0.4,0.1
		c0.2,0,0.4,0.1,0.6,0.1c0.3,0,0.6-0.1,0.8-0.2s0.2-0.3,0.2-0.5c0-0.1,0-0.3-0.1-0.3s-0.2-0.2-0.3-0.2c-0.1-0.1-0.3-0.1-0.4-0.2
		c-0.2-0.1-0.3-0.1-0.5-0.2s-0.3-0.1-0.5-0.2s-0.3-0.2-0.4-0.3c-0.1-0.1-0.2-0.3-0.3-0.4c-0.1-0.2-0.1-0.4-0.1-0.6s0-0.4,0.1-0.6
		s0.2-0.3,0.3-0.5s0.3-0.2,0.5-0.3c0.2-0.1,0.4-0.1,0.7-0.2l0.1-0.9c0,0,0,0,0-0.1c0,0,0,0,0.1,0h0.1c0,0,0.1,0,0.2,0
		c0.1,0,0.2,0,0.2,0c0.1,0,0.1,0,0.1,0s0.1,0,0.1,0.1v0.1l-0.1,0.8c0.1,0,0.2,0,0.3,0s0.2,0,0.3,0.1c0.1,0,0.2,0.1,0.2,0.1
		c0.1,0,0.1,0.1,0.1,0.1s0,0.1,0.1,0.1v0.1v0.1c0,0.1,0,0.1,0,0.2s0,0.2,0,0.2c0,0.1,0,0.1,0,0.1v0.1c0,0,0,0-0.1,0
		c0,0-0.1,0-0.2-0.1c-0.1,0-0.2-0.1-0.3-0.1s-0.2-0.1-0.4-0.1c-0.1,0-0.3-0.1-0.5-0.1s-0.3,0-0.4,0s-0.2,0.1-0.3,0.1
		s-0.1,0.1-0.1,0.2s0,0.2,0,0.2c0,0.1,0,0.3,0.1,0.3s0.2,0.2,0.3,0.2s0.3,0.1,0.4,0.2c0.2,0.1,0.3,0.1,0.5,0.2s0.3,0.1,0.5,0.2
		s0.3,0.2,0.4,0.3c0.1,0.1,0.2,0.3,0.3,0.4C516.8,117.3,516.8,117.5,516.8,117.7z"/>
	<path class="st3" d="M521.6,117.8c0,0.3-0.1,0.5-0.2,0.8s-0.3,0.4-0.5,0.6s-0.4,0.3-0.7,0.3c-0.3,0.1-0.6,0.1-0.9,0.1
		c-0.2,0-0.4,0-0.5,0c-0.2,0-0.3-0.1-0.5-0.1c-0.1,0-0.2-0.1-0.3-0.1s-0.1-0.1-0.2-0.1s0,0-0.1-0.1s0-0.1,0-0.1V119
		c0-0.1,0-0.1,0-0.2s0-0.2,0-0.3c0-0.1,0.1-0.1,0.1-0.1s0.1,0,0.2,0.1c0.1,0,0.2,0.1,0.3,0.1s0.2,0.1,0.4,0.1c0.1,0,0.3,0.1,0.5,0.1
		s0.3,0,0.4-0.1s0.2-0.1,0.3-0.2s0.2-0.2,0.2-0.3c0-0.1,0.1-0.2,0.1-0.3c0-0.1,0-0.2-0.1-0.4c-0.1-0.1-0.1-0.2-0.2-0.3
		c-0.1-0.1-0.2-0.1-0.4-0.2c-0.2,0-0.3-0.1-0.5-0.1h-0.5h-0.1c0,0,0,0-0.1-0.1s0-0.1,0-0.1c0-0.1,0-0.1,0-0.2s0-0.2,0-0.2
		c0-0.1,0-0.1,0-0.1s0,0,0.1-0.1h0.1h0.5c0.2,0,0.3,0,0.5-0.1c0.1,0,0.2-0.1,0.3-0.2s0.2-0.2,0.2-0.3c0-0.1,0.1-0.2,0.1-0.3
		c0-0.1,0-0.2,0-0.3c0-0.1-0.1-0.2-0.1-0.2c-0.1-0.1-0.1-0.1-0.2-0.1c-0.1,0-0.2-0.1-0.4-0.1s-0.3,0-0.4,0.1c-0.1,0-0.3,0.1-0.4,0.1
		c-0.1,0.1-0.2,0.1-0.3,0.2s-0.1,0.1-0.2,0.1c0,0,0,0-0.1,0c0,0,0,0,0-0.1s0-0.1,0-0.1s0-0.1,0-0.2s0-0.1,0-0.2v-0.1v-0.1
		c0,0,0,0,0.1-0.1c0,0,0.1-0.1,0.2-0.1c0.1-0.1,0.2-0.1,0.3-0.2s0.3-0.1,0.5-0.1s0.4-0.1,0.6-0.1c0.3,0,0.5,0,0.7,0.1
		s0.4,0.2,0.5,0.3c0.1,0.1,0.3,0.3,0.3,0.4c0.1,0.2,0.1,0.4,0.1,0.6s0,0.3-0.1,0.5c0,0.1-0.1,0.3-0.2,0.4c-0.1,0.1-0.2,0.2-0.3,0.3
		s-0.3,0.1-0.4,0.2l0,0c0.2,0,0.4,0.1,0.5,0.2c0.2,0.1,0.3,0.2,0.4,0.3c0.1,0.1,0.2,0.2,0.3,0.4
		C521.5,117.5,521.6,117.6,521.6,117.8z"/>
	<path class="st3" d="M526.3,119c0,0.1,0,0.2,0,0.2c0,0.1,0,0.1,0,0.1s0,0.1-0.1,0.1c0,0,0,0-0.1,0h-3.3c-0.1,0-0.1,0-0.2,0
		s-0.1,0-0.1-0.1c0,0,0-0.1-0.1-0.1s0-0.1,0-0.3c0-0.1,0-0.2,0-0.2c0-0.1,0-0.1,0-0.2s0.1-0.1,0.1-0.2s0.1-0.1,0.1-0.2l1-1.1
		c0.2-0.2,0.4-0.4,0.5-0.6s0.2-0.3,0.3-0.5c0.1-0.1,0.1-0.3,0.1-0.4s0-0.2,0-0.3c0-0.1,0-0.2,0-0.3c0-0.1-0.1-0.2-0.1-0.2
		s-0.1-0.1-0.2-0.2c-0.1,0-0.2-0.1-0.3-0.1c-0.2,0-0.3,0-0.5,0.1c-0.1,0-0.2,0.1-0.4,0.1c-0.1,0.1-0.2,0.1-0.3,0.1s-0.1,0.1-0.2,0.1
		c0,0,0,0-0.1,0c0,0,0,0,0-0.1s0-0.1,0-0.2s0-0.2,0-0.3c0-0.1,0-0.1,0-0.2v-0.1v-0.1c0,0,0-0.1,0.1-0.1c0,0,0.1-0.1,0.2-0.1
		c0.1-0.1,0.2-0.1,0.4-0.2c0.1-0.1,0.3-0.1,0.5-0.1s0.4-0.1,0.5-0.1c0.3,0,0.6,0,0.8,0.1s0.4,0.2,0.6,0.3c0.1,0.1,0.3,0.3,0.3,0.5
		c0.1,0.2,0.1,0.4,0.1,0.6s0,0.4-0.1,0.5s-0.1,0.4-0.2,0.6c-0.1,0.2-0.3,0.4-0.5,0.7c-0.2,0.2-0.5,0.5-0.8,0.9l-0.7,0.7h2.2h0.1
		c0,0,0,0,0.1,0.1v0.1C526.3,118.8,526.3,118.9,526.3,119z"/>
	<path class="st3" d="M531.2,116.6c0,0.5,0,0.9-0.1,1.2c-0.1,0.4-0.2,0.7-0.4,0.9c-0.2,0.3-0.4,0.5-0.6,0.6s-0.6,0.2-1,0.2
		s-0.7-0.1-1-0.2s-0.5-0.3-0.6-0.6c-0.2-0.2-0.3-0.6-0.3-0.9c-0.1-0.4-0.1-0.8-0.1-1.2c0-0.5,0-0.9,0.1-1.2c0.1-0.4,0.2-0.7,0.4-0.9
		s0.4-0.5,0.6-0.6c0.3-0.1,0.6-0.2,1-0.2s0.7,0.1,1,0.2s0.5,0.3,0.6,0.6c0.2,0.2,0.3,0.6,0.3,0.9
		C531.2,115.7,531.2,116.1,531.2,116.6z M530,116.7c0-0.3,0-0.5,0-0.7s0-0.4-0.1-0.5c0-0.2-0.1-0.3-0.1-0.4s-0.1-0.2-0.2-0.3
		c-0.1-0.1-0.1-0.1-0.2-0.1s-0.2,0-0.3,0c-0.2,0-0.3,0-0.4,0.1c-0.1,0.1-0.2,0.2-0.3,0.4c-0.1,0.2-0.1,0.4-0.1,0.6s0,0.5,0,0.9
		s0,0.7,0,1s0.1,0.5,0.2,0.6c0.1,0.2,0.2,0.3,0.3,0.3c0.1,0.1,0.2,0.1,0.4,0.1c0.1,0,0.2,0,0.3-0.1c0.1,0,0.2-0.1,0.2-0.2
		c0.1-0.1,0.1-0.2,0.2-0.3s0.1-0.2,0.1-0.4s0-0.3,0.1-0.5C530,117.1,530,116.9,530,116.7z"/>
</g>
<g>
	<path class="st3" d="M661.3,117.7c0,0.3,0,0.5-0.1,0.7s-0.2,0.4-0.4,0.5s-0.4,0.3-0.6,0.4s-0.5,0.1-0.8,0.2l-0.1,0.9c0,0,0,0,0,0.1
		c0,0,0,0-0.1,0h-0.1c0,0-0.1,0-0.2,0c-0.1,0-0.2,0-0.2,0c-0.1,0-0.1,0-0.1,0s-0.1,0-0.1-0.1v-0.1l0.1-0.9c-0.1,0-0.2,0-0.4-0.1
		c-0.1,0-0.2-0.1-0.3-0.1s-0.2-0.1-0.2-0.1c-0.1,0-0.1-0.1-0.1-0.1l-0.1-0.1c0-0.1,0-0.2,0-0.3c0-0.1,0-0.2,0-0.2v-0.1
		c0,0,0-0.1,0.1-0.1c0,0,0,0,0.1,0c0,0,0.1,0,0.2,0.1s0.2,0.1,0.3,0.1s0.3,0.1,0.4,0.1c0.2,0,0.4,0.1,0.6,0.1c0.3,0,0.6-0.1,0.8-0.2
		s0.2-0.3,0.2-0.5c0-0.1,0-0.3-0.1-0.3c-0.1-0.1-0.2-0.2-0.3-0.2c-0.1-0.1-0.3-0.1-0.4-0.2c-0.2-0.1-0.3-0.1-0.5-0.2
		s-0.3-0.1-0.5-0.2s-0.3-0.2-0.4-0.3s-0.2-0.3-0.3-0.4c-0.1-0.2-0.1-0.4-0.1-0.6s0-0.4,0.1-0.6s0.2-0.3,0.3-0.5s0.3-0.2,0.5-0.3
		c0.2-0.1,0.4-0.1,0.7-0.2l0.1-0.9c0,0,0,0,0-0.1c0,0,0,0,0.1,0h0.1c0,0,0.1,0,0.2,0c0.1,0,0.2,0,0.2,0c0.1,0,0.1,0,0.1,0
		s0.1,0,0.1,0.1s0,0.1,0,0.1l-0.1,0.8c0.1,0,0.2,0,0.3,0s0.2,0,0.3,0.1c0.1,0,0.2,0.1,0.2,0.1c0.1,0,0.1,0.1,0.1,0.1s0,0.1,0.1,0.1
		v0.1v0.1c0,0.1,0,0.1,0,0.2s0,0.2,0,0.2c0,0.1,0,0.1,0,0.1v0.1c0,0,0,0-0.1,0c0,0-0.1,0-0.2-0.1s-0.2-0.1-0.3-0.1s-0.2-0.1-0.4-0.1
		c-0.1,0-0.3-0.1-0.5-0.1s-0.3,0-0.4,0s-0.2,0.1-0.3,0.1s-0.1,0.1-0.1,0.2s0,0.2,0,0.2c0,0.1,0,0.3,0.1,0.3s0.2,0.2,0.3,0.2
		c0.1,0.1,0.3,0.1,0.4,0.2c0.2,0.1,0.3,0.1,0.5,0.2s0.3,0.1,0.5,0.2s0.3,0.2,0.4,0.3c0.1,0.1,0.2,0.3,0.3,0.4
		C661.2,117.3,661.3,117.5,661.3,117.7z"/>
	<path class="st3" d="M666,117.8c0,0.3-0.1,0.5-0.2,0.8s-0.3,0.4-0.5,0.6s-0.4,0.3-0.7,0.3c-0.3,0.1-0.6,0.1-0.9,0.1
		c-0.2,0-0.4,0-0.5,0c-0.2,0-0.3-0.1-0.5-0.1c-0.1,0-0.2-0.1-0.3-0.1s-0.1-0.1-0.2-0.1s0,0-0.1-0.1v-0.1V119c0-0.1,0-0.1,0-0.2
		s0-0.2,0-0.3c0-0.1,0.1-0.1,0.1-0.1s0.1,0,0.2,0.1c0.1,0,0.2,0.1,0.3,0.1s0.2,0.1,0.4,0.1c0.1,0,0.3,0.1,0.5,0.1s0.3,0,0.4-0.1
		s0.2-0.1,0.3-0.2s0.2-0.2,0.2-0.3c0-0.1,0.1-0.2,0.1-0.3c0-0.1,0-0.2-0.1-0.4c-0.1-0.1-0.1-0.2-0.2-0.3c-0.1-0.1-0.2-0.1-0.4-0.2
		c-0.2,0-0.3-0.1-0.5-0.1h-0.5h-0.1c0,0,0,0-0.1-0.1s0-0.1,0-0.1c0-0.1,0-0.1,0-0.2s0-0.2,0-0.2c0-0.1,0-0.1,0-0.1s0,0,0.1-0.1h0.1
		h0.5c0.2,0,0.3,0,0.5-0.1c0.1,0,0.2-0.1,0.3-0.2s0.2-0.2,0.2-0.3c0-0.1,0.1-0.2,0.1-0.3c0-0.1,0-0.2,0-0.3c0-0.1-0.1-0.2-0.1-0.2
		c-0.1-0.1-0.1-0.1-0.2-0.1c-0.1,0-0.2-0.1-0.4-0.1s-0.3,0-0.4,0.1c-0.1,0-0.3,0.1-0.4,0.1c-0.1,0.1-0.2,0.1-0.3,0.2
		c-0.1,0-0.1,0.1-0.2,0.1c0,0,0,0-0.1,0c0,0,0,0,0-0.1s0-0.1,0-0.1s0-0.1,0-0.2s0-0.1,0-0.2v-0.1v-0.1c0,0,0,0,0.1-0.1
		c0,0,0.1-0.1,0.2-0.1s0.2-0.1,0.3-0.2s0.3-0.1,0.5-0.1s0.4-0.1,0.6-0.1c0.3,0,0.5,0,0.7,0.1s0.4,0.2,0.5,0.3
		c0.1,0.1,0.3,0.3,0.3,0.4c0.1,0.2,0.1,0.4,0.1,0.6s0,0.3-0.1,0.5s-0.1,0.3-0.2,0.4s-0.2,0.2-0.3,0.3c-0.1,0.1-0.3,0.1-0.4,0.2l0,0
		c0.2,0,0.4,0.1,0.5,0.2c0.2,0.1,0.3,0.2,0.4,0.3c0.1,0.1,0.2,0.2,0.3,0.4C666,117.5,666,117.6,666,117.8z"/>
	<path class="st3" d="M670.9,116.6c0,0.5,0,0.9-0.1,1.2s-0.2,0.7-0.4,0.9c-0.2,0.3-0.4,0.5-0.6,0.6c-0.3,0.1-0.6,0.2-1,0.2
		s-0.7-0.1-1-0.2s-0.5-0.3-0.6-0.6c-0.1-0.2-0.3-0.6-0.3-0.9c-0.1-0.4-0.1-0.8-0.1-1.2c0-0.5,0-0.9,0.1-1.2c0.1-0.4,0.2-0.7,0.4-0.9
		c0.2-0.3,0.4-0.5,0.6-0.6c0.3-0.1,0.6-0.2,1-0.2s0.7,0.1,1,0.2s0.5,0.3,0.6,0.6c0.1,0.2,0.3,0.6,0.3,0.9
		C670.9,115.7,670.9,116.1,670.9,116.6z M669.7,116.7c0-0.3,0-0.5,0-0.7s0-0.4-0.1-0.5c0-0.2-0.1-0.3-0.1-0.4s-0.1-0.2-0.2-0.3
		c-0.1-0.1-0.1-0.1-0.2-0.1s-0.2,0-0.3,0c-0.2,0-0.3,0-0.4,0.1c-0.1,0.1-0.2,0.2-0.3,0.4c-0.1,0.2-0.1,0.4-0.1,0.6s0,0.5,0,0.9
		s0,0.7,0,1s0.1,0.5,0.2,0.6c0.1,0.2,0.2,0.3,0.3,0.3c0.1,0.1,0.2,0.1,0.4,0.1c0.1,0,0.2,0,0.3-0.1c0.1,0,0.2-0.1,0.2-0.2
		c0.1-0.1,0.1-0.2,0.2-0.3s0.1-0.2,0.1-0.4c0-0.1,0-0.3,0.1-0.5C669.7,117.1,669.7,116.9,669.7,116.7z"/>
	<path class="st3" d="M675.6,116.6c0,0.5,0,0.9-0.1,1.2s-0.2,0.7-0.4,0.9c-0.2,0.3-0.4,0.5-0.6,0.6c-0.3,0.1-0.6,0.2-1,0.2
		s-0.7-0.1-1-0.2s-0.5-0.3-0.6-0.6c-0.1-0.2-0.3-0.6-0.3-0.9c-0.1-0.4-0.1-0.8-0.1-1.2c0-0.5,0-0.9,0.1-1.2c0.1-0.4,0.2-0.7,0.4-0.9
		c0.2-0.3,0.4-0.5,0.6-0.6c0.3-0.1,0.6-0.2,1-0.2s0.7,0.1,1,0.2s0.5,0.3,0.6,0.6c0.1,0.2,0.3,0.6,0.3,0.9
		C675.6,115.7,675.6,116.1,675.6,116.6z M674.5,116.7c0-0.3,0-0.5,0-0.7s0-0.4-0.1-0.5c0-0.2-0.1-0.3-0.1-0.4s-0.1-0.2-0.2-0.3
		c-0.1-0.1-0.1-0.1-0.2-0.1s-0.2,0-0.3,0c-0.2,0-0.3,0-0.4,0.1c-0.1,0.1-0.2,0.2-0.3,0.4c-0.1,0.2-0.1,0.4-0.1,0.6s0,0.5,0,0.9
		s0,0.7,0,1s0.1,0.5,0.2,0.6c0.1,0.2,0.2,0.3,0.3,0.3c0.1,0.1,0.2,0.1,0.4,0.1c0.1,0,0.2,0,0.3-0.1c0.1,0,0.2-0.1,0.2-0.2
		c0.1-0.1,0.1-0.2,0.2-0.3s0.1-0.2,0.1-0.4c0-0.1,0-0.3,0.1-0.5C674.5,117.1,674.5,116.9,674.5,116.7z"/>
</g>
<g>
	<path class="st3" d="M733.5,117.7c0,0.3,0,0.5-0.1,0.7s-0.2,0.4-0.4,0.5s-0.4,0.3-0.6,0.4s-0.5,0.1-0.8,0.2l-0.1,0.9c0,0,0,0,0,0.1
		c0,0,0,0-0.1,0h-0.1c0,0-0.1,0-0.2,0c-0.1,0-0.2,0-0.2,0c-0.1,0-0.1,0-0.1,0s-0.1,0-0.1-0.1v-0.1l0.1-0.9c-0.1,0-0.2,0-0.4-0.1
		c-0.1,0-0.2-0.1-0.3-0.1s-0.2-0.1-0.2-0.1c-0.1,0-0.1-0.1-0.1-0.1l-0.1-0.1c0-0.1,0-0.2,0-0.3c0-0.1,0-0.2,0-0.2v-0.1
		c0,0,0-0.1,0.1-0.1c0,0,0,0,0.1,0c0,0,0.1,0,0.2,0.1s0.2,0.1,0.3,0.1s0.3,0.1,0.4,0.1c0.2,0,0.4,0.1,0.6,0.1c0.3,0,0.6-0.1,0.8-0.2
		s0.2-0.3,0.2-0.5c0-0.1,0-0.3-0.1-0.3c-0.1-0.1-0.2-0.2-0.3-0.2c-0.1-0.1-0.3-0.1-0.4-0.2c-0.2-0.1-0.3-0.1-0.5-0.2
		s-0.3-0.1-0.5-0.2s-0.3-0.2-0.4-0.3s-0.2-0.3-0.3-0.4c-0.1-0.2-0.1-0.4-0.1-0.6s0-0.4,0.1-0.6s0.2-0.3,0.3-0.5s0.3-0.2,0.5-0.3
		c0.2-0.1,0.4-0.1,0.7-0.2l0.1-0.9c0,0,0,0,0-0.1c0,0,0,0,0.1,0h0.1c0,0,0.1,0,0.2,0c0.1,0,0.2,0,0.2,0c0.1,0,0.1,0,0.1,0
		s0.1,0,0.1,0.1s0,0.1,0,0.1l-0.1,0.8c0.1,0,0.2,0,0.3,0s0.2,0,0.3,0.1c0.1,0,0.2,0.1,0.2,0.1c0.1,0,0.1,0.1,0.1,0.1s0,0.1,0.1,0.1
		v0.1v0.1c0,0.1,0,0.1,0,0.2s0,0.2,0,0.2c0,0.1,0,0.1,0,0.1v0.1c0,0,0,0-0.1,0c0,0-0.1,0-0.2-0.1s-0.2-0.1-0.3-0.1s-0.2-0.1-0.4-0.1
		c-0.1,0-0.3-0.1-0.5-0.1s-0.3,0-0.4,0s-0.2,0.1-0.3,0.1s-0.1,0.1-0.1,0.2s0,0.2,0,0.2c0,0.1,0,0.3,0.1,0.3s0.2,0.2,0.3,0.2
		c0.1,0.1,0.3,0.1,0.4,0.2c0.2,0.1,0.3,0.1,0.5,0.2s0.3,0.1,0.5,0.2s0.3,0.2,0.4,0.3c0.1,0.1,0.2,0.3,0.3,0.4
		C733.5,117.3,733.5,117.5,733.5,117.7z"/>
	<path class="st3" d="M738.2,117.8c0,0.3-0.1,0.5-0.2,0.8s-0.3,0.4-0.5,0.6s-0.4,0.3-0.7,0.3c-0.3,0.1-0.6,0.1-0.9,0.1
		c-0.2,0-0.4,0-0.5,0c-0.2,0-0.3-0.1-0.5-0.1c-0.1,0-0.2-0.1-0.3-0.1s-0.1-0.1-0.2-0.1s0,0-0.1-0.1v-0.1V119c0-0.1,0-0.1,0-0.2
		s0-0.2,0-0.3c0-0.1,0.1-0.1,0.1-0.1s0.1,0,0.2,0.1c0.1,0,0.2,0.1,0.3,0.1s0.2,0.1,0.4,0.1c0.1,0,0.3,0.1,0.5,0.1s0.3,0,0.4-0.1
		s0.2-0.1,0.3-0.2s0.2-0.2,0.2-0.3c0-0.1,0.1-0.2,0.1-0.3c0-0.1,0-0.2-0.1-0.4c-0.1-0.1-0.1-0.2-0.2-0.3c-0.1-0.1-0.2-0.1-0.4-0.2
		c-0.2,0-0.3-0.1-0.5-0.1h-0.5H735c0,0,0,0-0.1-0.1s0-0.1,0-0.1c0-0.1,0-0.1,0-0.2s0-0.2,0-0.2c0-0.1,0-0.1,0-0.1s0,0,0.1-0.1h0.1
		h0.5c0.2,0,0.3,0,0.5-0.1c0.1,0,0.2-0.1,0.3-0.2s0.2-0.2,0.2-0.3c0-0.1,0.1-0.2,0.1-0.3c0-0.1,0-0.2,0-0.3c0-0.1-0.1-0.2-0.1-0.2
		c-0.1-0.1-0.1-0.1-0.2-0.1c-0.1,0-0.2-0.1-0.4-0.1s-0.3,0-0.4,0.1c-0.1,0-0.3,0.1-0.4,0.1c-0.1,0.1-0.2,0.1-0.3,0.2
		c-0.1,0-0.1,0.1-0.2,0.1c0,0,0,0-0.1,0c0,0,0,0,0-0.1s0-0.1,0-0.1s0-0.1,0-0.2s0-0.1,0-0.2v-0.1v-0.1c0,0,0,0,0.1-0.1
		c0,0,0.1-0.1,0.2-0.1s0.2-0.1,0.3-0.2s0.3-0.1,0.5-0.1s0.4-0.1,0.6-0.1c0.3,0,0.5,0,0.7,0.1s0.4,0.2,0.5,0.3
		c0.1,0.1,0.3,0.3,0.3,0.4c0.1,0.2,0.1,0.4,0.1,0.6s0,0.3-0.1,0.5s-0.1,0.3-0.2,0.4s-0.2,0.2-0.3,0.3c-0.1,0.1-0.3,0.1-0.4,0.2l0,0
		c0.2,0,0.4,0.1,0.5,0.2c0.2,0.1,0.3,0.2,0.4,0.3c0.1,0.1,0.2,0.2,0.3,0.4C738.2,117.5,738.2,117.6,738.2,117.8z"/>
	<path class="st3" d="M743.1,116.6c0,0.5,0,0.9-0.1,1.2s-0.2,0.7-0.4,0.9c-0.2,0.3-0.4,0.5-0.6,0.6c-0.3,0.1-0.6,0.2-1,0.2
		s-0.7-0.1-1-0.2s-0.5-0.3-0.6-0.6c-0.1-0.2-0.3-0.6-0.3-0.9c-0.1-0.4-0.1-0.8-0.1-1.2c0-0.5,0-0.9,0.1-1.2c0.1-0.4,0.2-0.7,0.4-0.9
		c0.2-0.3,0.4-0.5,0.6-0.6c0.3-0.1,0.6-0.2,1-0.2s0.7,0.1,1,0.2s0.5,0.3,0.6,0.6c0.1,0.2,0.3,0.6,0.3,0.9
		C743.1,115.7,743.1,116.1,743.1,116.6z M741.9,116.7c0-0.3,0-0.5,0-0.7s0-0.4-0.1-0.5c0-0.2-0.1-0.3-0.1-0.4s-0.1-0.2-0.2-0.3
		c-0.1-0.1-0.1-0.1-0.2-0.1s-0.2,0-0.3,0c-0.2,0-0.3,0-0.4,0.1c-0.1,0.1-0.2,0.2-0.3,0.4c-0.1,0.2-0.1,0.4-0.1,0.6s0,0.5,0,0.9
		s0,0.7,0,1s0.1,0.5,0.2,0.6c0.1,0.2,0.2,0.3,0.3,0.3c0.1,0.1,0.2,0.1,0.4,0.1c0.1,0,0.2,0,0.3-0.1c0.1,0,0.2-0.1,0.2-0.2
		c0.1-0.1,0.1-0.2,0.2-0.3s0.1-0.2,0.1-0.4c0-0.1,0-0.3,0.1-0.5C741.9,117.1,741.9,116.9,741.9,116.7z"/>
	<path class="st3" d="M747.9,116.6c0,0.5,0,0.9-0.1,1.2s-0.2,0.7-0.4,0.9c-0.2,0.3-0.4,0.5-0.6,0.6c-0.3,0.1-0.6,0.2-1,0.2
		s-0.7-0.1-1-0.2s-0.5-0.3-0.6-0.6c-0.1-0.2-0.3-0.6-0.3-0.9c-0.1-0.4-0.1-0.8-0.1-1.2c0-0.5,0-0.9,0.1-1.2c0.1-0.4,0.2-0.7,0.4-0.9
		c0.2-0.3,0.4-0.5,0.6-0.6c0.3-0.1,0.6-0.2,1-0.2s0.7,0.1,1,0.2s0.5,0.3,0.6,0.6c0.1,0.2,0.3,0.6,0.3,0.9
		C747.8,115.7,747.9,116.1,747.9,116.6z M746.7,116.7c0-0.3,0-0.5,0-0.7s0-0.4-0.1-0.5c0-0.2-0.1-0.3-0.1-0.4s-0.1-0.2-0.2-0.3
		c-0.1-0.1-0.1-0.1-0.2-0.1s-0.2,0-0.3,0c-0.2,0-0.3,0-0.4,0.1c-0.1,0.1-0.2,0.2-0.3,0.4c-0.1,0.2-0.1,0.4-0.1,0.6s0,0.5,0,0.9
		s0,0.7,0,1s0.1,0.5,0.2,0.6c0.1,0.2,0.2,0.3,0.3,0.3c0.1,0.1,0.2,0.1,0.4,0.1c0.1,0,0.2,0,0.3-0.1c0.1,0,0.2-0.1,0.2-0.2
		c0.1-0.1,0.1-0.2,0.2-0.3s0.1-0.2,0.1-0.4c0-0.1,0-0.3,0.1-0.5C746.7,117.1,746.7,116.9,746.7,116.7z"/>
</g>
<g>
	<rect x="774.8" y="4.3" class="st0" width="125" height="125"/>
</g>
<g>
	<path class="st4" d="M394.2,58.1c0,2.3-0.3,4.4-1,6.3s-1.6,3.5-2.8,4.8c-1.2,1.4-2.6,2.5-4.3,3.3c-1.7,0.8-3.5,1.3-5.6,1.6
		l-0.3,8.3c0,0.5-0.4,0.9-1.2,1.1c-0.8,0.3-1.9,0.4-3.4,0.4c-0.9,0-1.7,0-2.4-0.1c-0.6,0-1.1-0.1-1.5-0.2s-0.6-0.3-0.8-0.5
		s-0.3-0.5-0.3-0.8l-0.4-10c0-0.9,0-1.6,0.1-2.2s0.3-1,0.6-1.4c0.3-0.3,0.7-0.6,1.1-0.7c0.5-0.1,1-0.2,1.6-0.2h0.6
		c1.5,0,2.8-0.2,3.9-0.7s2-1.1,2.7-1.9s1.2-1.7,1.6-2.8c0.3-1.1,0.5-2.2,0.5-3.4c0-1.4-0.2-2.6-0.6-3.7c-0.4-1.1-1-2.1-1.7-2.9
		c-0.8-0.8-1.8-1.5-2.9-1.9c-1.2-0.4-2.6-0.7-4.1-0.7c-1.4,0-2.7,0.1-3.8,0.4c-1.1,0.3-2.1,0.6-2.8,0.9c-0.8,0.3-1.5,0.7-2,0.9
		c-0.5,0.3-0.9,0.4-1.2,0.4c-0.2,0-0.4-0.1-0.6-0.2c-0.2-0.1-0.3-0.4-0.4-0.7s-0.2-0.8-0.3-1.4c-0.1-0.6-0.1-1.4-0.1-2.4
		s0-1.7,0.1-2.2s0.3-0.8,0.6-1.1c0.3-0.3,0.8-0.6,1.6-1c0.8-0.4,1.7-0.7,2.8-1.1c1.1-0.3,2.3-0.6,3.7-0.8c1.4-0.2,2.8-0.3,4.2-0.3
		c3.3,0,6.2,0.5,8.6,1.4s4.3,2.2,5.8,3.7c1.5,1.6,2.6,3.3,3.3,5.4C393.9,53.7,394.2,55.9,394.2,58.1z M381.7,94.5
		c0,1.2-0.1,2.1-0.3,2.9c-0.2,0.8-0.5,1.4-1,1.9s-1.1,0.8-1.9,1s-1.7,0.3-2.9,0.3c-1.2,0-2.2-0.1-2.9-0.3c-0.8-0.2-1.4-0.6-1.8-1
		c-0.5-0.5-0.8-1.1-1-1.9s-0.3-1.8-0.3-2.9c0-1.2,0.1-2.2,0.3-3c0.2-0.8,0.5-1.5,1-2s1.1-0.8,1.8-1.1c0.8-0.2,1.7-0.3,2.9-0.3
		c1.1,0,2.1,0.1,2.9,0.3c0.8,0.2,1.4,0.6,1.9,1.1s0.8,1.1,1,2C381.6,92.3,381.7,93.3,381.7,94.5z"/>
</g>
<path class="st3" d="M482.6,85.4l-4.3-5h-4v-2.7h0.7v-2.9h0.7v-2.7H475v-3.4h-0.7v-1.3H471l0.4-7.5h1.5v-2.3h-7.2V60h1.5l0.4,7.5
	h-5.4v-2.7c0-1.5-1.2-2.2-2.7-2.2s-2.7,0.7-2.7,2.2v2.7h-5.5v-5.1c0-2-1.6-3.1-3.6-3.1s-3.6,1.1-3.6,3.1v5.1h-7.6V61h-20.4v1.7h7.6
	v15.8H422v-0.8h-1.8v4h1.8v-1.1h1.8v1.9h4.1c0.6,2,2.5,3.4,4.7,3.4s4.1-1.4,4.7-3.4h1.8c0.6,2,2.5,3.4,4.7,3.4s4.1-1.4,4.7-3.4h1.8
	c0.6,2,2.5,3.4,4.7,3.4s4.1-1.4,4.7-3.4h2.6c-0.1,0.2-0.1,0.5-0.1,0.8c0,1.5,1.2,2.6,2.6,2.6s2.6-1.2,2.6-2.6c0-0.3,0-0.5-0.1-0.8
	h0.8c-0.1,0.2-0.1,0.5-0.1,0.8c0,1.5,1.2,2.6,2.6,2.6c1.5,0,2.6-1.2,2.6-2.6c0-0.3,0-0.5-0.1-0.8h2.5v2.9H482.6z M425.2,68.7v-4.9
	h7.1v4.9H425.2z M452.6,79.6h-21.8c-0.4,0-0.8-0.4-0.8-0.8s0.4-0.8,0.8-0.8h21.8c0.4,0,0.8,0.4,0.8,0.8S453,79.6,452.6,79.6z"/>
<g>
	<rect x="568.2" y="76.4" class="st5" width="55.7" height="29.6"/>
	<rect x="568.2" y="58.3" class="st6" width="55.7" height="18.1"/>
	<rect x="571.5" y="67.3" class="st7" width="49.1" height="5.8"/>
	<rect x="571.5" y="61.6" class="st8" width="49.1" height="5.8"/>
	<path class="st9" d="M619.1,102.6c0-0.8,0.6-1.4,1.4-1.4c0.8,0,1.4,0.6,1.4,1.4s-0.6,1.4-1.4,1.4
		C619.7,104.1,619.1,103.4,619.1,102.6z"/>
	<path class="st9" d="M619.1,79.8c0-0.8,0.6-1.4,1.4-1.4c0.8,0,1.4,0.6,1.4,1.4s-0.6,1.4-1.4,1.4C619.7,81.2,619.1,80.6,619.1,79.8z
		"/>
	<path class="st9" d="M570.2,102.6c0-0.8,0.6-1.4,1.4-1.4c0.8,0,1.4,0.6,1.4,1.4s-0.6,1.4-1.4,1.4
		C570.8,104.1,570.2,103.4,570.2,102.6z"/>
	<g>
		<g>
			<g>
				<g>
					<g>
						<defs>
							<path id="SVGID_1_" d="M620.5,83.2c-1.9,0-3.4-1.5-3.4-3.4c0,0,0,0,0-0.1H575c0,0,0,0,0,0.1c0,1.9-1.5,3.4-3.4,3.4
								c0,0,0,0-0.1,0v16.1c0,0,0,0,0.1,0c1.9,0,3.4,1.5,3.4,3.4c0,0,0,0,0,0.1h42.2c0,0,0,0,0-0.1c0-1.9,1.5-3.4,3.4-3.4
								c0,0,0,0,0.1,0L620.5,83.2C620.5,83.1,620.5,83.2,620.5,83.2z"/>
						</defs>
						<clipPath id="SVGID_00000075164147188221894750000008586044759794394533_">
							<use xlink:href="#SVGID_1_"  style="overflow:visible;"/>
						</clipPath>
						<g style="clip-path:url(#SVGID_00000075164147188221894750000008586044759794394533_);">
							<rect x="571.5" y="97" class="st7" width="49.1" height="5.8"/>
							<rect x="571.5" y="91.2" class="st8" width="49.1" height="5.8"/>
							<rect x="571.5" y="85.5" class="st7" width="49.1" height="5.8"/>
							<rect x="571.5" y="79.7" class="st8" width="49.1" height="5.8"/>
						</g>
					</g>
				</g>
			</g>
		</g>
	</g>
	<path class="st9" d="M570.2,79.8c0-0.8,0.6-1.4,1.4-1.4c0.8,0,1.4,0.6,1.4,1.4s-0.6,1.4-1.4,1.4C570.8,81.2,570.2,80.6,570.2,79.8z
		"/>
	<polygon class="st6" points="600.3,91.7 591.8,91.7 590.8,83 601.3,83 	"/>
	<path class="st11" d="M597.7,90.2l-1-2.6c0.5-0.3,0.8-0.8,0.8-1.4c0-0.9-0.7-1.6-1.6-1.6s-1.6,0.7-1.6,1.6c0,0.6,0.3,1.1,0.8,1.4
		l-1,2.6H597.7z"/>
</g>
<g>
	<g>
		<g>
			<g>
				<path class="st12" d="M233.2,63.8c-12,0-21.7,9.7-21.7,21.7s9.7,21.7,21.7,21.7s21.7-9.7,21.7-21.7S245.1,63.8,233.2,63.8z
					 M233.2,104.8c-10.7,0-19.3-8.6-19.3-19.3s8.6-19.3,19.3-19.3s19.3,8.6,19.3,19.3C252.5,96.1,243.8,104.8,233.2,104.8z"/>
			</g>
		</g>
		<g>
			<polygon class="st13" points="223.6,50.8 226.8,45.3 230,50.8 			"/>
			<polygon class="st14" points="230,50.8 233.2,45.3 236.3,50.8 			"/>
			<polygon class="st13" points="236.3,50.8 239.5,45.3 242.7,50.8 			"/>
			<polygon class="st15" points="239.5,45.3 236.3,50.8 233.1,45.3 			"/>
			<polygon class="st15" points="233.1,45.3 230,50.8 226.8,45.3 			"/>
			<polygon class="st15" points="223.6,50.8 233.2,63.3 230,50.8 			"/>
			<polygon class="st13" points="230,50.8 233.2,63.3 236.3,50.8 			"/>
			<polygon class="st15" points="236.3,50.8 233.2,63.3 242.7,50.8 			"/>
		</g>
	</g>
	<polygon class="st16" points="243.4,49.7 252.2,49.1 243.8,51.8 244.5,60.5 241.8,52.2 233.1,52.8 241.4,50.1 240.7,41.4 	"/>
</g>
<g>
	<path class="st3" d="M789.3,36.7c0.1,0.1,0.2,0.2,0.2,0.3c0.1,0.1,0.1,0.2,0.1,0.2c0,0.1,0,0.1,0,0.1s0,0.1-0.1,0.1
		c0,0-0.1,0.1-0.3,0.1s-0.4,0.1-0.6,0.2c-0.2,0.1-0.5,0.2-0.8,0.4s-0.6,0.4-0.9,0.7c-0.3,0.3-0.6,0.7-0.7,1
		c-0.2,0.4-0.2,0.8-0.2,1.1c0,0.4,0.1,0.8,0.3,1.2s0.5,0.8,0.8,1.1c0.4,0.4,0.8,0.7,1.2,0.9s0.8,0.3,1.2,0.3s0.7-0.1,1.1-0.2
		c0.4-0.2,0.7-0.4,1-0.7c0.2-0.2,0.3-0.3,0.4-0.5c0.1-0.2,0.2-0.4,0.3-0.6l-1.6-1.6l-1.3,1.3c-0.1,0.1-0.2,0.1-0.3,0
		c-0.1,0-0.3-0.2-0.4-0.3c-0.1-0.1-0.2-0.2-0.2-0.3c-0.1-0.1-0.1-0.1-0.1-0.2c0-0.1,0-0.1,0-0.2c0,0,0-0.1,0.1-0.1l2.3-2.3
		c0.1-0.1,0.1-0.1,0.2-0.1c0.1,0,0.1,0,0.2,0c0.1,0,0.1,0,0.2,0.1c0.1,0,0.1,0.1,0.2,0.2l2.7,2.7c0.1,0.1,0.2,0.2,0.2,0.3
		s0,0.2,0,0.4c-0.1,0.2-0.2,0.3-0.3,0.6s-0.2,0.4-0.4,0.6c-0.1,0.2-0.3,0.4-0.5,0.6c-0.2,0.2-0.3,0.4-0.5,0.6
		c-0.5,0.5-1.1,0.9-1.7,1.2c-0.6,0.3-1.2,0.4-1.7,0.4c-0.6,0-1.2-0.1-1.7-0.4c-0.6-0.3-1.1-0.7-1.7-1.2c-0.5-0.5-1-1.1-1.2-1.7
		c-0.3-0.6-0.4-1.2-0.4-1.8s0.1-1.2,0.4-1.8c0.3-0.6,0.7-1.2,1.2-1.7c0.3-0.3,0.6-0.5,0.9-0.7c0.3-0.2,0.5-0.4,0.8-0.5
		c0.2-0.1,0.4-0.2,0.6-0.3c0.2-0.1,0.3-0.1,0.4-0.1c0.1,0,0.2,0,0.3,0.1S789.2,36.5,789.3,36.7z"/>
	<path class="st3" d="M799.2,31.3c0.6,0.6,1,1.1,1.3,1.7s0.5,1.2,0.5,1.7c0,0.6-0.1,1.1-0.3,1.7c-0.2,0.6-0.6,1.1-1.2,1.6
		c-0.5,0.5-1,0.9-1.6,1.2c-0.5,0.3-1.1,0.4-1.6,0.3c-0.5,0-1.1-0.2-1.6-0.5s-1.1-0.7-1.7-1.3c-0.5-0.5-1-1.1-1.3-1.7
		c-0.3-0.6-0.5-1.1-0.5-1.7c0-0.6,0.1-1.1,0.3-1.7c0.2-0.6,0.6-1.1,1.2-1.6c0.5-0.5,1-0.9,1.5-1.1c0.5-0.3,1.1-0.4,1.6-0.4
		s1.1,0.2,1.7,0.5C798,30.3,798.6,30.7,799.2,31.3z M797.8,32.8c-0.4-0.4-0.7-0.6-1-0.9c-0.3-0.2-0.7-0.4-1-0.5s-0.7-0.1-1,0.1
		c-0.3,0.1-0.7,0.3-1,0.7c-0.3,0.3-0.6,0.7-0.7,1c-0.1,0.4-0.1,0.7,0,1s0.2,0.7,0.4,1s0.5,0.7,0.8,1c0.4,0.4,0.7,0.7,1.1,0.9
		c0.3,0.2,0.7,0.4,1,0.5s0.7,0.1,1-0.1c0.3-0.1,0.7-0.3,1-0.7s0.6-0.7,0.7-1c0.1-0.3,0.1-0.7,0-1.1s-0.2-0.7-0.5-1
		C798.4,33.4,798.2,33.1,797.8,32.8z"/>
	<path class="st3" d="M804.9,20.2c0.1,0.1,0.2,0.2,0.2,0.3c0.1,0.1,0.1,0.1,0.1,0.2s0,0.1,0,0.2c0,0,0,0.1-0.1,0.1l-1.7,1.7L809,28
		l0.1,0.1c0,0.1,0,0.1,0,0.2s-0.1,0.2-0.2,0.3s-0.2,0.2-0.3,0.3c-0.1,0.1-0.2,0.2-0.3,0.3c-0.1,0.1-0.2,0.1-0.2,0.2
		c-0.1,0-0.1,0-0.2,0c0,0-0.1,0-0.1-0.1l-5.4-5.4l-1.7,1.7l-0.1,0.1c0,0-0.1,0-0.2,0c-0.1,0-0.1-0.1-0.2-0.1
		c-0.1-0.1-0.2-0.1-0.3-0.2s-0.2-0.2-0.2-0.3c-0.1-0.1-0.1-0.2-0.1-0.2c0-0.1,0-0.1,0-0.2s0-0.1,0.1-0.1l4.7-4.7c0,0,0.1,0,0.1-0.1
		c0,0,0.1,0,0.2,0c0.1,0,0.1,0.1,0.2,0.1C804.7,20,804.8,20.1,804.9,20.2z"/>
	<path class="st3" d="M814.4,16.1c0.6,0.6,1,1.1,1.3,1.7s0.5,1.2,0.5,1.7c0,0.6-0.1,1.1-0.3,1.7s-0.6,1.1-1.2,1.6
		c-0.5,0.5-1,0.9-1.6,1.2c-0.5,0.3-1.1,0.4-1.6,0.3c-0.5,0-1.1-0.2-1.7-0.5c-0.6-0.3-1.1-0.7-1.7-1.3c-0.5-0.5-1-1.1-1.3-1.7
		s-0.5-1.1-0.5-1.7s0.1-1.1,0.3-1.7s0.6-1.1,1.2-1.6c0.5-0.5,1-0.9,1.5-1.1c0.5-0.3,1.1-0.4,1.6-0.4s1.1,0.2,1.6,0.5
		S813.8,15.5,814.4,16.1z M813,17.6c-0.4-0.4-0.7-0.6-1-0.9c-0.3-0.2-0.7-0.4-1-0.5s-0.7-0.1-1,0.1c-0.3,0.1-0.7,0.3-1,0.7
		c-0.3,0.3-0.6,0.7-0.7,1c-0.1,0.4-0.1,0.7,0,1s0.2,0.7,0.4,1s0.5,0.7,0.8,1c0.4,0.4,0.7,0.7,1.1,0.9c0.3,0.2,0.7,0.4,1,0.5
		s0.7,0.1,1-0.1s0.7-0.3,1-0.7c0.3-0.3,0.6-0.7,0.7-1c0.1-0.3,0.1-0.7,0-1.1s-0.2-0.7-0.5-1C813.6,18.3,813.3,17.9,813,17.6z"/>
	<path class="st3" d="M807,49.3c0.3,0.3,0.5,0.6,0.7,0.9c0.2,0.3,0.3,0.6,0.3,0.9c0,0.3,0,0.6-0.1,0.9c-0.1,0.3-0.4,0.6-0.7,1
		c-0.1,0.1-0.2,0.2-0.3,0.3s-0.2,0.2-0.3,0.2c-0.1,0.1-0.2,0.1-0.3,0.1s-0.2,0.1-0.2,0H806c0,0-0.1,0-0.1-0.1s-0.1-0.1-0.2-0.1
		c-0.1-0.1-0.1-0.1-0.2-0.2c-0.1-0.1-0.2-0.2-0.3-0.3s-0.1-0.2-0.2-0.2c0-0.1-0.1-0.1,0-0.2c0,0,0-0.1,0.1-0.1l0.1-0.1
		c0,0,0.1,0,0.2-0.1c0.1,0,0.2-0.1,0.3-0.1s0.2-0.1,0.3-0.2c0.1-0.1,0.2-0.2,0.2-0.3s0.1-0.2,0-0.3c0-0.1-0.1-0.2-0.2-0.4
		c-0.1-0.1-0.2-0.3-0.4-0.5l-4.6-4.6l-0.1-0.1c0,0,0-0.1,0-0.2c0-0.1,0.1-0.1,0.2-0.2c0.1-0.1,0.2-0.2,0.3-0.3s0.2-0.2,0.3-0.3
		s0.2-0.1,0.2-0.2c0.1,0,0.1-0.1,0.2,0c0,0,0.1,0,0.1,0.1L807,49.3z"/>
	<path class="st3" d="M815.2,43.7c0.2,0.1,0.3,0.2,0.4,0.2c0.1,0.1,0.1,0.1,0.1,0.2c0,0.1,0,0.2-0.1,0.3s-0.2,0.2-0.4,0.4
		s-0.3,0.3-0.4,0.4c-0.1,0.1-0.2,0.2-0.3,0.2s-0.1,0.1-0.2,0c0,0-0.1,0-0.2-0.1l-1.8-0.9l-2.5,2.5l0.9,1.7c0,0.1,0.1,0.1,0.1,0.2
		c0,0.1,0,0.1,0,0.2s-0.1,0.2-0.2,0.3c-0.1,0.1-0.2,0.2-0.3,0.4c-0.2,0.2-0.3,0.3-0.4,0.4s-0.2,0.1-0.3,0.1s-0.1,0-0.2-0.1
		c-0.1-0.1-0.1-0.2-0.2-0.4l-3.9-8c0-0.1-0.1-0.2-0.1-0.2c0-0.1,0-0.1,0-0.2s0.1-0.2,0.2-0.3c0.1-0.1,0.2-0.3,0.4-0.4
		c0.2-0.2,0.4-0.4,0.5-0.5s0.2-0.2,0.3-0.2s0.2-0.1,0.2-0.1c0.1,0,0.1,0,0.2,0.1L815.2,43.7z M807.2,41.9L807.2,41.9l1.9,3.8
		l1.9-1.9L807.2,41.9z"/>
	<path class="st3" d="M818.1,41.5L818.1,41.5c0.1,0.1,0.1,0.2,0.1,0.3S818.1,42,818,42c-0.1,0.1-0.2,0.2-0.3,0.3s-0.2,0.2-0.3,0.3
		s-0.2,0.1-0.3,0.2c-0.1,0-0.1,0-0.2,0c-0.1,0-0.1,0-0.1-0.1l-6.3-6.3l-0.1-0.1c0,0,0-0.1,0-0.2c0-0.1,0.1-0.2,0.2-0.3
		c0.1-0.1,0.2-0.2,0.3-0.3s0.2-0.2,0.3-0.3s0.2-0.1,0.2-0.2c0.1,0,0.1,0,0.2,0c0,0,0.1,0,0.1,0.1L818.1,41.5z"/>
	<path class="st3" d="M823,35.8c0.1,0.1,0.2,0.2,0.2,0.3c0.1,0.1,0.1,0.1,0.1,0.2c0,0.1,0,0.1,0,0.2c0,0,0,0.1-0.1,0.1l-3.1,3.1
		c-0.1,0.1-0.2,0.2-0.4,0.2c-0.1,0-0.3-0.1-0.4-0.2l-6.1-6.1l-0.1-0.1c0,0,0-0.1,0-0.2c0-0.1,0.1-0.2,0.2-0.3
		c0.1-0.1,0.2-0.2,0.3-0.3s0.2-0.2,0.3-0.3s0.2-0.1,0.2-0.2c0.1,0,0.1,0,0.2,0c0.1,0,0.1,0,0.1,0.1l5.4,5.4l2.1-2.1l0.1-0.1
		c0,0,0.1,0,0.2,0c0.1,0,0.1,0.1,0.2,0.1C822.9,35.6,822.9,35.7,823,35.8z"/>
</g>
<g>
	<g>
		
			<rect x="855.8" y="27.8" transform="matrix(0.7073 -0.707 0.707 0.7073 214.3302 621.306)" class="st3" width="3.1" height="48.1"/>
		
			<rect x="848.7" y="34.8" transform="matrix(0.7071 -0.7071 0.7071 0.7071 207.4116 618.4359)" class="st3" width="3.1" height="48.1"/>
		
			<rect x="841.8" y="41.8" transform="matrix(0.7072 -0.707 0.707 0.7072 200.3743 615.533)" class="st3" width="3.1" height="48.1"/>
		
			<rect x="834.8" y="48.8" transform="matrix(0.707 -0.7072 0.7072 0.707 193.5217 612.8128)" class="st3" width="3.1" height="48.1"/>
		
			<rect x="827.8" y="55.7" transform="matrix(0.7071 -0.7071 0.7071 0.7071 186.5129 609.7759)" class="st3" width="3.1" height="48.1"/>
		
			<rect x="820.9" y="62.7" transform="matrix(0.7071 -0.7071 0.7071 0.7071 179.5475 606.9692)" class="st3" width="3.1" height="48.1"/>
	</g>
	<g>
		
			<rect x="821.6" y="78.9" transform="matrix(0.7071 -0.7071 0.7071 0.7071 192.3944 625.3356)" class="st3" width="58.9" height="3.1"/>
		
			<rect x="799.3" y="56.7" transform="matrix(0.7072 -0.707 0.707 0.7072 201.4606 602.9735)" class="st3" width="58.9" height="3.1"/>
	</g>
</g>
<g>
	<path d="M73.5,22.5c-0.5-0.2-1.4-0.7-2.3-1.6c-2.7-2.7-2.4-5.7-0.2-7.9c2.6-2.6,5.9-2.2,8.3,0.1c0.9,0.9,1.4,1.8,1.6,2.2l-1.7,1
		c-0.2-0.5-0.6-1.1-1.2-1.7c-1.4-1.4-3.3-1.6-5,0.1c-1.5,1.5-1.6,3.4-0.1,5c0.5,0.5,1.2,1,1.7,1.2L73.5,22.5z"/>
	<path d="M85.1,26.6c-2.5,2.5-5.6,2.5-7.8,0.3c-2.3-2.3-1.9-5.3,0.3-7.5c2.3-2.3,5.5-2.5,7.8-0.3C87.7,21.5,87.2,24.5,85.1,26.6z
		 M79.4,21.2c-1.5,1.5-1.9,3.3-0.7,4.4c1.2,1.2,3,0.7,4.4-0.8c1.4-1.4,1.9-3.2,0.7-4.4C82.7,19.3,80.9,19.7,79.4,21.2z"/>
	<path d="M90,24l1.7,1.7L85.5,32l3.1,3.1l-1.5,1.5l-4.8-4.8L90,24z"/>
	<path d="M95.8,29.8l1.7,1.7l-6.2,6.2l3.1,3.1l-1.5,1.5l-4.8-4.8L95.8,29.8z"/>
	<path d="M101.7,44.6l-2.8-2.8l-1.8,1.8l3.2,3.2l-1.4,1.4L94,43.3l7.7-7.7l4.7,4.7l-1.4,1.4l-3-3l-1.6,1.6l2.8,2.8L101.7,44.6z"/>
	<path d="M105.8,54.8c-0.5-0.2-1.4-0.7-2.3-1.6c-2.7-2.7-2.4-5.7-0.2-7.9c2.6-2.6,5.9-2.2,8.3,0.1c0.9,0.9,1.4,1.8,1.6,2.2l-1.7,1
		c-0.2-0.5-0.5-1.1-1.2-1.7c-1.4-1.4-3.3-1.6-5,0.1c-1.5,1.5-1.6,3.4-0.1,5c0.5,0.5,1.2,1,1.7,1.2L105.8,54.8z"/>
	<path d="M114.6,51.6l-2.1-2.1L114,48l5.9,5.9l-1.5,1.5l-2.1-2.1l-6.2,6.2l-1.7-1.7L114.6,51.6z"/>
	<path d="M62.4,24c0.5,0.4,1.5,1.2,2.4,2.1c1.1,1.1,1.6,1.8,1.8,2.7c0.3,0.8,0.1,1.7-0.6,2.4c-0.7,0.7-1.7,0.9-2.9,0.4l0,0
		c0.6,1.1,0.6,2.4-0.4,3.4c-0.7,0.7-1.6,0.9-2.4,0.8c-1-0.1-2.2-0.8-3.7-2.3c-0.9-0.9-1.4-1.5-1.8-2L62.4,24z M57.8,32.1
		c0.1,0.2,0.3,0.4,0.6,0.7c0.8,0.8,1.8,1.2,2.6,0.4s0.4-1.8-0.5-2.6L59.9,30L57.8,32.1z M61.2,28.7l0.6,0.6c0.9,0.9,1.8,1,2.4,0.4
		s0.4-1.3-0.3-2.1c-0.4-0.4-0.6-0.6-0.8-0.7L61.2,28.7z"/>
	<path d="M65.4,38.2l-2.5,1.4l-1.8-1.8l10-5.3l2.3,2.3l-5.3,10.1L66.2,43l1.4-2.6L65.4,38.2z M68.7,38.9l1.2-2.1
		c0.3-0.6,0.8-1.3,1.1-1.9l0,0c-0.6,0.3-1.3,0.8-1.8,1.1L67,37.2L68.7,38.9z"/>
	<path d="M75.6,51.7c-0.7-0.4-2-1.1-3-2.1c-1.4-1.4-2.1-2.8-2.1-4.2s0.6-2.8,1.7-3.9c2.6-2.5,5.9-2.1,8.4,0.4c1,1,1.6,1.9,1.8,2.5
		l-1.8,1c-0.2-0.6-0.6-1.3-1.5-2.1c-1.4-1.4-3.4-1.7-5-0.1c-1.6,1.6-1.5,3.5-0.1,4.9c0.4,0.4,0.8,0.7,1,0.7l1.6-1.6L75.4,46l1.4-1.4
		l2.9,2.9L75.6,51.7z"/>
	<path d="M78.5,51.6c0.2,0.7,0.7,1.7,1.4,2.4c0.8,0.8,1.6,0.9,2.1,0.4s0.4-1.1-0.2-2.4c-0.8-1.7-1-3.3,0.2-4.4
		c1.3-1.3,3.4-1.2,5.2,0.6c0.9,0.9,1.3,1.7,1.6,2.3l-1.8,1c-0.2-0.4-0.5-1.2-1.2-2c-0.8-0.8-1.5-0.8-1.9-0.4
		c-0.5,0.5-0.3,1.1,0.3,2.5c0.9,1.9,0.8,3.2-0.3,4.3c-1.3,1.3-3.4,1.4-5.5-0.7c-0.9-0.9-1.5-2-1.7-2.6L78.5,51.6z"/>
	<path d="M88.8,61.6L86.3,63l-1.8-1.8l10-5.3l2.3,2.3l-5.3,10.1l-1.9-1.9l1.4-2.6L88.8,61.6z M92.1,62.3l1.2-2.1
		c0.3-0.6,0.8-1.3,1.1-1.9l0,0c-0.6,0.3-1.3,0.8-1.8,1.1l-2.1,1.2L92.1,62.3z"/>
	<path d="M94.4,67.6c0.2,0.7,0.7,1.7,1.4,2.4c0.8,0.8,1.6,0.9,2.1,0.4s0.4-1.1-0.2-2.4c-0.8-1.7-1-3.3,0.2-4.4
		c1.3-1.3,3.4-1.2,5.2,0.6c0.9,0.9,1.3,1.7,1.6,2.3l-1.8,1c-0.2-0.5-0.5-1.2-1.2-2c-0.8-0.8-1.5-0.8-1.9-0.4
		c-0.5,0.5-0.3,1.1,0.3,2.5c0.9,1.9,0.8,3.2-0.3,4.3c-1.3,1.3-3.4,1.4-5.5-0.7c-0.9-0.9-1.5-2-1.7-2.6L94.4,67.6z"/>
	<path d="M39.7,43.8l3.1-3.1l2.1-7l2,2l-1.1,2.6c-0.3,0.8-0.6,1.4-0.9,2.1l0,0c0.6-0.3,1.3-0.6,2.1-0.9l2.6-1.1l2,2l-7,1.9l-3.2,3.2
		L39.7,43.8z"/>
	<path d="M55.2,51.5c-2.5,2.5-5.6,2.5-7.8,0.3c-2.3-2.3-1.9-5.3,0.3-7.5c2.3-2.3,5.5-2.5,7.8-0.3C57.8,46.3,57.4,49.4,55.2,51.5z
		 M49.6,46c-1.5,1.5-1.9,3.3-0.7,4.4c1.2,1.2,3,0.7,4.4-0.8c1.4-1.4,1.9-3.2,0.7-4.4C52.9,44.1,51.1,44.5,49.6,46z"/>
	<path d="M61.9,50.6L57.4,55c-1.3,1.3-1.5,2.5-0.6,3.4s2.1,0.8,3.4-0.6l4.4-4.4l1.7,1.7L62,59.4c-2.4,2.4-4.7,2.3-6.7,0.3
		c-1.9-1.9-2-4.1,0.4-6.6l4.3-4.3L61.9,50.6z"/>
	<path d="M70.1,59c0.6,0.4,1.4,1.1,2.5,2.2c1.1,1.1,1.6,2,1.7,3c0.1,0.9-0.2,1.8-1,2.6c-0.8,0.8-1.6,1.2-2.5,1.1
		c-1.2,0-2.3-0.7-3.3-1.7c-0.2-0.2-0.4-0.5-0.6-0.6l-2.7,2.8l-1.7-1.7L70.1,59z M68.3,64.2c0.1,0.2,0.3,0.4,0.5,0.6
		c0.9,0.9,2,1,2.7,0.2c0.7-0.7,0.6-1.6-0.2-2.5c-0.3-0.3-0.6-0.6-0.8-0.7L68.3,64.2z"/>
	<path d="M72.2,72.3l-2.5,1.4L67.9,72l10-5.3l2.3,2.3l-5.3,10L73,77.1l1.4-2.6L72.2,72.3z M75.5,73l1.2-2.1c0.3-0.6,0.8-1.3,1.1-1.9
		l0,0c-0.6,0.3-1.3,0.8-1.8,1.1l-2.1,1.2L75.5,73z"/>
	<path d="M77.8,78.3c0.2,0.7,0.7,1.7,1.4,2.4c0.8,0.8,1.6,0.9,2.1,0.4s0.4-1.1-0.2-2.4c-0.8-1.7-1-3.3,0.2-4.4
		c1.3-1.3,3.4-1.2,5.2,0.6c0.9,0.9,1.3,1.7,1.6,2.3l-1.8,1c-0.2-0.5-0.5-1.2-1.2-2c-0.8-0.8-1.5-0.8-1.9-0.4
		c-0.5,0.5-0.3,1.1,0.3,2.5c0.9,1.9,0.8,3.2-0.3,4.3c-1.3,1.3-3.4,1.4-5.5-0.7c-0.9-0.9-1.5-2-1.7-2.6L77.8,78.3z"/>
	<path d="M83.9,84.4c0.2,0.7,0.7,1.7,1.4,2.4c0.8,0.8,1.6,0.9,2.1,0.4s0.4-1.1-0.2-2.4c-0.8-1.7-1-3.3,0.2-4.4
		c1.3-1.3,3.4-1.2,5.2,0.6c0.9,0.9,1.3,1.7,1.6,2.3l-1.8,1c-0.2-0.5-0.5-1.2-1.2-2c-0.8-0.8-1.5-0.8-1.9-0.4
		c-0.5,0.5-0.3,1.1,0.3,2.5c0.9,1.9,0.8,3.2-0.3,4.3C88,90,85.9,90.1,83.8,88c-0.9-0.9-1.5-2-1.7-2.6L83.9,84.4z"/>
</g>
<g>
	<path d="M136.8,51.2c0.4-0.1,1.2-0.1,2-0.1c0.9,0,1.5,0.1,2,0.4c0.5,0.3,0.8,0.7,0.8,1.3s-0.3,1.2-1.1,1.4l0,0
		c0.8,0.2,1.3,0.8,1.3,1.7c0,0.6-0.3,1.1-0.7,1.4c-0.5,0.4-1.3,0.6-2.6,0.6c-0.8,0-1.3,0-1.6-0.1L136.8,51.2L136.8,51.2z
		 M138.3,53.7h0.5c0.8,0,1.2-0.3,1.2-0.8s-0.4-0.8-1.1-0.8c-0.3,0-0.5,0-0.6,0L138.3,53.7L138.3,53.7z M138.3,56.7
		c0.1,0,0.3,0,0.6,0c0.7,0,1.3-0.3,1.3-1s-0.6-0.9-1.4-0.9h-0.5L138.3,56.7L138.3,56.7z"/>
	<path d="M144.4,56.1l-0.5,1.7h-1.6l2.1-6.7h2l2.1,6.7h-1.6l-0.5-1.7H144.4z M146.1,54.9l-0.4-1.4c-0.1-0.4-0.2-0.9-0.3-1.3l0,0
		c-0.1,0.4-0.2,0.9-0.3,1.3l-0.4,1.4H146.1z"/>
	<path d="M154.7,57.5c-0.5,0.2-1.4,0.4-2.2,0.4c-1.2,0-2.1-0.3-2.7-0.9c-0.6-0.6-1-1.5-1-2.5c0-2.2,1.6-3.5,3.8-3.5
		c0.9,0,1.5,0.2,1.9,0.3l-0.3,1.2c-0.4-0.2-0.8-0.3-1.6-0.3c-1.3,0-2.2,0.7-2.2,2.2c0,1.4,0.9,2.2,2.1,2.2c0.3,0,0.6,0,0.7-0.1v-1.4
		h-1v-1.2h2.5V57.5z"/>
	<path d="M156,56.2c0.4,0.2,1,0.4,1.7,0.4s1.1-0.3,1.1-0.7s-0.3-0.7-1.1-0.9c-1.1-0.4-1.9-1-1.9-2c0-1.1,1-2,2.5-2
		c0.8,0,1.3,0.2,1.7,0.3l-0.3,1.2c-0.3-0.1-0.8-0.3-1.4-0.3c-0.7,0-1,0.3-1,0.7s0.4,0.6,1.2,0.9c1.2,0.4,1.7,1.1,1.7,2
		c0,1.1-0.9,2.1-2.7,2.1c-0.8,0-1.5-0.2-1.9-0.4L156,56.2z"/>
	<path d="M162.4,57.8l-1.6-6.7h1.6l0.5,2.8c0.1,0.8,0.3,1.7,0.4,2.4l0,0c0.1-0.7,0.3-1.5,0.4-2.4l0.6-2.8h1.6l0.5,2.8
		c0.1,0.8,0.3,1.5,0.4,2.3l0,0c0.1-0.8,0.2-1.5,0.4-2.3l0.5-2.8h1.5l-1.7,6.7H166l-0.6-2.9c-0.1-0.7-0.2-1.3-0.3-2.1l0,0
		c-0.1,0.8-0.2,1.4-0.4,2.1l-0.6,2.9H162.4z"/>
	<path d="M171.2,56.1l-0.5,1.7h-1.6l2.1-6.7h2l2.1,6.7h-1.6l-0.5-1.7H171.2z M172.9,54.9l-0.4-1.4c-0.1-0.4-0.2-0.9-0.3-1.3l0,0
		c-0.1,0.4-0.2,0.9-0.3,1.3l-0.4,1.4H172.9z"/>
	<path d="M176.2,51.1h1.5v5.5h2.7v1.3h-4.2V51.1z"/>
	<path d="M181.3,51.1h1.5v3l0,0c0.1-0.3,0.3-0.5,0.5-0.7l1.5-2.2h1.9l-2.2,2.9l2.3,3.9H185l-1.7-2.9l-0.6,0.7V58h-1.5v-6.9H181.3z"
		/>
</g>
<g>
	<path d="M215.1,23.2h1.5v5.5h2.7V30h-4.2V23.2z"/>
	<path d="M221.5,23.2v3.9c0,1.2,0.4,1.8,1.2,1.8s1.2-0.6,1.2-1.8v-3.9h1.5V27c0,2.1-1.1,3.1-2.8,3.1s-2.7-0.9-2.7-3.1v-3.8H221.5z"
		/>
	<path d="M230.3,29.9l-0.6-1.2c-0.2-0.5-0.4-0.8-0.6-1.2l0,0c-0.1,0.4-0.3,0.7-0.5,1.2l-0.6,1.2h-1.7l1.9-3.4l-1.9-3.3h1.8l0.6,1.2
		c0.2,0.4,0.3,0.7,0.5,1.1l0,0c0.2-0.4,0.3-0.7,0.5-1.1l0.6-1.2h1.7l-1.9,3.3l2,3.4H230.3z"/>
	<path d="M234.4,23.2v3.9c0,1.2,0.4,1.8,1.2,1.8s1.2-0.6,1.2-1.8v-3.9h1.5V27c0,2.1-1.1,3.1-2.8,3.1s-2.7-0.9-2.7-3.1v-3.8H234.4z"
		/>
	<path d="M239.7,23.3c0.5-0.1,1.2-0.1,2-0.1c1,0,1.7,0.2,2.2,0.5c0.4,0.3,0.6,0.8,0.6,1.4c0,0.9-0.6,1.4-1.2,1.7l0,0
		c0.5,0.2,0.7,0.6,0.9,1.3c0.2,0.8,0.4,1.6,0.5,1.9h-1.6c-0.1-0.2-0.3-0.7-0.5-1.6c-0.2-0.8-0.5-1.1-1.1-1.1H241v2.6h-1.5v-6.6
		C239.5,23.3,239.7,23.3,239.7,23.3z M241.2,26.2h0.6c0.8,0,1.2-0.4,1.2-1s-0.4-0.9-1.1-0.9c-0.4,0-0.6,0-0.7,0.1V26.2z"/>
	<path d="M247,29.9v-2.8l-2.1-4h1.7l0.7,1.6c0.2,0.5,0.4,0.8,0.5,1.3l0,0c0.2-0.4,0.3-0.8,0.5-1.3l0.7-1.6h1.7l-2.2,3.9v2.8H247
		V29.9z"/>
	<path d="M226,34.5h-1.8v-1.3h5.2v1.3h-1.8V40H226V34.5z"/>
	<path d="M231,38.2l-0.5,1.7H229l2.1-6.7h2l2.1,6.7h-1.6l-0.5-1.7H231z M232.7,37.1l-0.4-1.4c-0.1-0.4-0.2-0.9-0.3-1.3l0,0
		c-0.1,0.4-0.2,0.9-0.3,1.3l-0.4,1.4H232.7z"/>
	<path d="M239.3,39.9l-0.6-1.2c-0.2-0.5-0.4-0.8-0.6-1.2l0,0c-0.1,0.4-0.3,0.7-0.5,1.2l-0.6,1.2h-1.7l1.9-3.4l-1.9-3.3h1.8l0.6,1.2
		c0.2,0.4,0.3,0.7,0.5,1.1l0,0c0.2-0.4,0.3-0.7,0.5-1.1l0.6-1.2h1.7l-1.9,3.3l2,3.4H239.3z"/>
</g>
<g>
	<path d="M297.1,55.2c0-0.8-0.1-1.8-0.1-2.8l0,0c-0.2,0.9-0.5,1.8-0.8,2.6l-0.8,2.6h-1.2l-0.7-2.6c-0.2-0.8-0.4-1.8-0.6-2.6l0,0
		c0,0.9-0.1,2-0.1,2.8l-0.1,2.6h-1.4l0.4-6.7h2l0.7,2.3c0.2,0.8,0.4,1.6,0.6,2.4l0,0c0.2-0.8,0.4-1.7,0.6-2.4l0.7-2.2h2l0.4,6.7
		h-1.5L297.1,55.2z"/>
	<path d="M306,54.3c0,2.2-1.3,3.5-3.3,3.5s-3.2-1.5-3.2-3.4c0-2,1.3-3.5,3.3-3.5C304.9,50.9,306,52.4,306,54.3z M301.1,54.4
		c0,1.3,0.6,2.2,1.6,2.2s1.6-1,1.6-2.3c0-1.2-0.6-2.3-1.6-2.3C301.7,52.1,301.1,53.1,301.1,54.4z"/>
	<path d="M313.2,54.3c0,2.2-1.3,3.5-3.3,3.5s-3.2-1.5-3.2-3.4c0-2,1.3-3.5,3.3-3.5C312.1,50.9,313.2,52.4,313.2,54.3z M308.3,54.4
		c0,1.3,0.6,2.2,1.6,2.2s1.6-1,1.6-2.3c0-1.2-0.6-2.3-1.6-2.3C308.9,52.1,308.3,53.1,308.3,54.4z"/>
	<path d="M314.2,57.7V51h1.8l1.4,2.5c0.4,0.7,0.8,1.5,1.1,2.3l0,0c-0.1-0.9-0.1-1.8-0.1-2.8v-2h1.4v6.7h-1.6l-1.4-2.6
		c-0.4-0.7-0.8-1.6-1.2-2.4l0,0c0,0.9,0.1,1.8,0.1,2.9v2L314.2,57.7L314.2,57.7z"/>
	<path d="M291.9,63.1C292.4,63,293,63,294,63c0.9,0,1.6,0.2,2.1,0.5c0.4,0.3,0.7,0.9,0.7,1.6s-0.2,1.2-0.6,1.6
		c-0.5,0.5-1.3,0.7-2.2,0.7c-0.2,0-0.4,0-0.5,0v2.4H292v-6.7C292,63.1,291.9,63.1,291.9,63.1z M293.5,66.2c0.1,0,0.3,0,0.5,0
		c0.8,0,1.3-0.4,1.3-1.1c0-0.6-0.4-1-1.2-1c-0.3,0-0.5,0-0.6,0L293.5,66.2L293.5,66.2z"/>
	<path d="M297.8,63h1.5v5.5h2.7v1.3h-4.2V63z"/>
	<path d="M304.5,68l-0.5,1.7h-1.6l2.1-6.7h2l2.1,6.7H307l-0.5-1.7H304.5z M306.2,66.9l-0.4-1.4c-0.1-0.4-0.2-0.9-0.3-1.3l0,0
		c-0.1,0.4-0.2,0.9-0.3,1.3l-0.4,1.4H306.2z"/>
	<path d="M314.2,69.6c-0.3,0.1-0.9,0.3-1.7,0.3c-2.3,0-3.5-1.5-3.5-3.4c0-2.3,1.6-3.6,3.7-3.6c0.8,0,1.4,0.2,1.7,0.3l-0.3,1.2
		c-0.3-0.1-0.7-0.3-1.3-0.3c-1.2,0-2.1,0.7-2.1,2.2c0,1.4,0.8,2.2,2.2,2.2c0.5,0,1-0.1,1.3-0.2L314.2,69.6z"/>
	<path d="M319.2,66.9h-2.5v1.6h2.8v1.2h-4.3V63h4.1v1.2h-2.6v1.4h2.5V66.9z"/>
</g>
<g>
	<path d="M364.3,30c-0.3,0.1-0.9,0.3-1.7,0.3c-2.3,0-3.5-1.5-3.5-3.4c0-2.3,1.6-3.6,3.7-3.6c0.8,0,1.4,0.2,1.7,0.3l-0.3,1.2
		c-0.3-0.1-0.7-0.3-1.3-0.3c-1.2,0-2.1,0.7-2.1,2.2c0,1.4,0.8,2.2,2.2,2.2c0.5,0,1-0.1,1.3-0.2L364.3,30z"/>
	<path d="M366.9,23.4V26h2.5v-2.6h1.5v6.7h-1.5v-2.8h-2.5v2.8h-1.5v-6.7C365.4,23.4,366.9,23.4,366.9,23.4z"/>
	<path d="M373.8,28.4l-0.5,1.7h-1.6l2.1-6.7h2l2.1,6.7h-1.6l-0.5-1.7C375.8,28.4,373.8,28.4,373.8,28.4z M375.5,27.3l-0.4-1.4
		c-0.1-0.4-0.2-0.9-0.3-1.3l0,0c-0.1,0.4-0.2,0.9-0.3,1.3l-0.4,1.4H375.5z"/>
	<path d="M378.8,30.1v-6.7h1.8l1.4,2.5c0.4,0.7,0.8,1.5,1.1,2.3l0,0c-0.1-0.9-0.1-1.8-0.1-2.8v-2h1.4v6.7h-1.6l-1.4-2.6
		c-0.4-0.7-0.8-1.6-1.2-2.4l0,0c0,0.9,0.1,1.8,0.1,2.9v2L378.8,30.1L378.8,30.1z"/>
	<path d="M390.6,30c-0.3,0.1-0.9,0.3-1.7,0.3c-2.3,0-3.5-1.5-3.5-3.4c0-2.3,1.6-3.6,3.7-3.6c0.8,0,1.4,0.2,1.7,0.3l-0.3,1.2
		c-0.3-0.1-0.7-0.3-1.3-0.3c-1.2,0-2.1,0.7-2.1,2.2c0,1.4,0.8,2.2,2.2,2.2c0.5,0,1-0.1,1.3-0.2L390.6,30z"/>
	<path d="M395.6,27.3h-2.5v1.6h2.8v1.2h-4.3v-6.7h4.1v1.2h-2.6V26h2.5V27.3z"/>
</g>
<g>
	<path d="M438.2,23.6c0.4-0.1,1.2-0.1,2-0.1c0.9,0,1.5,0.1,2,0.4s0.8,0.7,0.8,1.3c0,0.6-0.3,1.2-1.1,1.4l0,0
		c0.8,0.2,1.3,0.8,1.3,1.7c0,0.6-0.3,1.1-0.7,1.4c-0.5,0.4-1.3,0.6-2.6,0.6c-0.8,0-1.3,0-1.6-0.1L438.2,23.6L438.2,23.6z
		 M439.7,26.1h0.5c0.8,0,1.2-0.3,1.2-0.8s-0.4-0.8-1.1-0.8c-0.3,0-0.5,0-0.6,0V26.1z M439.7,29.1c0.1,0,0.3,0,0.6,0
		c0.7,0,1.3-0.3,1.3-1s-0.6-0.9-1.4-0.9h-0.5V29.1z"/>
	<path d="M445.8,28.5l-0.5,1.7h-1.6l2.1-6.7h2l2.1,6.7h-1.6l-0.5-1.7H445.8z M447.5,27.3l-0.4-1.4c-0.1-0.4-0.2-0.9-0.3-1.3l0,0
		c-0.1,0.4-0.2,0.9-0.3,1.3l-0.4,1.4H447.5z"/>
	<path d="M456.1,29.9c-0.5,0.2-1.4,0.4-2.2,0.4c-1.2,0-2.1-0.3-2.7-0.9s-1-1.5-1-2.5c0-2.2,1.6-3.5,3.8-3.5c0.9,0,1.5,0.2,1.9,0.3
		l-0.3,1.2c-0.4-0.2-0.8-0.3-1.6-0.3c-1.3,0-2.2,0.7-2.2,2.2c0,1.4,0.9,2.2,2.1,2.2c0.3,0,0.6,0,0.7-0.1v-1.4h-1v-1.2h2.5
		L456.1,29.9L456.1,29.9z"/>
	<path d="M457.4,28.6c0.4,0.2,1,0.4,1.7,0.4s1.1-0.3,1.1-0.7c0-0.4-0.3-0.7-1.1-0.9c-1.1-0.4-1.9-1-1.9-2c0-1.1,1-2,2.5-2
		c0.8,0,1.3,0.2,1.7,0.3l-0.3,1.2c-0.3-0.1-0.8-0.3-1.4-0.3c-0.7,0-1,0.3-1,0.7c0,0.4,0.4,0.6,1.2,0.9c1.2,0.4,1.7,1.1,1.7,2
		c0,1.1-0.9,2.1-2.7,2.1c-0.8,0-1.5-0.2-1.9-0.4L457.4,28.6z"/>
	<path d="M440.4,33.5h1.5V39h2.7v1.3h-4.2V33.5z"/>
	<path d="M447,33.5v6.7h-1.5v-6.7H447z"/>
	<path d="M448.3,40.2v-6.7h1.8l1.4,2.5c0.4,0.7,0.8,1.5,1.1,2.3l0,0c-0.1-0.9-0.1-1.8-0.1-2.8v-2h1.4v6.7h-1.6l-1.4-2.6
		c-0.4-0.7-0.8-1.6-1.2-2.4l0,0c0,0.9,0.1,1.8,0.1,2.9v2L448.3,40.2L448.3,40.2z"/>
	<path d="M459.2,37.3h-2.5v1.6h2.8v1.2h-4.3v-6.7h4.2v1.2h-2.6V36h2.5v1.3H459.2z"/>
</g>
<g>
	<path d="M570.9,29.9c-0.3,0.1-0.9,0.3-1.7,0.3c-2.3,0-3.5-1.5-3.5-3.4c0-2.3,1.6-3.6,3.7-3.6c0.8,0,1.4,0.2,1.7,0.3l-0.3,1.2
		c-0.3-0.1-0.7-0.3-1.3-0.3c-1.2,0-2.1,0.7-2.1,2.2c0,1.4,0.8,2.2,2.2,2.2c0.5,0,1-0.1,1.3-0.2L570.9,29.9z"/>
	<path d="M577.7,26.6c0,2.2-1.3,3.5-3.3,3.5s-3.2-1.5-3.2-3.4c0-2,1.3-3.5,3.3-3.5C576.6,23.2,577.7,24.7,577.7,26.6z M572.9,26.7
		c0,1.3,0.6,2.2,1.6,2.2s1.6-1,1.6-2.3c0-1.2-0.6-2.3-1.6-2.3C573.5,24.4,572.9,25.4,572.9,26.7z"/>
	<path d="M584.4,27.5c0-0.8-0.1-1.8-0.1-2.8l0,0c-0.2,0.9-0.5,1.8-0.8,2.6l-0.8,2.6h-1.2l-0.7-2.6c-0.2-0.8-0.4-1.8-0.6-2.6l0,0
		c0,0.9-0.1,2-0.1,2.8L580,30h-1.4l0.4-6.7h2l0.7,2.3c0.2,0.8,0.4,1.6,0.6,2.4l0,0c0.2-0.8,0.4-1.7,0.6-2.4l0.7-2.2h2L586,30h-1.5
		L584.4,27.5z"/>
	<path d="M592.9,27.5c0-0.8-0.1-1.8-0.1-2.8l0,0c-0.2,0.9-0.5,1.8-0.8,2.6l-0.8,2.6H590l-0.7-2.6c-0.2-0.8-0.4-1.8-0.6-2.6l0,0
		c0,0.9-0.1,2-0.1,2.8l-0.1,2.6h-1.4l0.4-6.7h2l0.7,2.3c0.2,0.8,0.4,1.6,0.6,2.4l0,0c0.2-0.8,0.4-1.7,0.6-2.4l0.7-2.2h2l0.4,6.7H593
		L592.9,27.5z"/>
	<path d="M597.2,23.3v3.9c0,1.2,0.4,1.8,1.2,1.8s1.2-0.6,1.2-1.8v-3.9h1.5v3.8c0,2.1-1.1,3.1-2.8,3.1s-2.7-0.9-2.7-3.1v-3.8H597.2z"
		/>
	<path d="M602.5,30v-6.7h1.8l1.4,2.5c0.4,0.7,0.8,1.5,1.1,2.3l0,0c-0.1-0.9-0.1-1.8-0.1-2.8v-2h1.4V30h-1.6l-1.4-2.6
		c-0.4-0.7-0.8-1.6-1.2-2.4l0,0c0,0.9,0.1,1.8,0.1,2.9v2h-1.5V30z"/>
	<path d="M610.9,23.3V30h-1.5v-6.7H610.9z"/>
	<path d="M613.5,24.6h-1.8v-1.3h5.2v1.3h-1.8V30h-1.5v-5.4H613.5z"/>
	<path d="M619.3,30v-2.8l-2.1-4h1.7l0.7,1.6c0.2,0.5,0.4,0.8,0.5,1.3l0,0c0.2-0.4,0.3-0.8,0.5-1.3l0.7-1.6h1.7l-2.2,3.9V30H619.3z"
		/>
	<path d="M585.3,39.9c-0.3,0.1-0.9,0.3-1.7,0.3c-2.3,0-3.5-1.5-3.5-3.4c0-2.3,1.6-3.6,3.7-3.6c0.8,0,1.4,0.2,1.7,0.3l-0.3,1.2
		c-0.3-0.1-0.7-0.3-1.3-0.3c-1.2,0-2.1,0.7-2.1,2.2c0,1.4,0.8,2.2,2.2,2.2c0.5,0,1-0.1,1.3-0.2L585.3,39.9z"/>
	<path d="M587.8,33.3v2.6h2.5v-2.6h1.5V40h-1.5v-2.8h-2.5V40h-1.5v-6.7H587.8z"/>
	<path d="M597.2,37.2h-2.5v1.6h2.8V40h-4.3v-6.7h4.1v1.2h-2.6V36h2.5V37.2z"/>
	<path d="M598.6,38.5c0.4,0.2,1,0.4,1.7,0.4s1.1-0.3,1.1-0.7s-0.3-0.7-1.1-0.9c-1.1-0.4-1.9-1-1.9-2c0-1.1,1-2,2.5-2
		c0.8,0,1.3,0.2,1.7,0.3l-0.3,1.2c-0.3-0.1-0.8-0.3-1.4-0.3c-0.7,0-1,0.3-1,0.7s0.4,0.6,1.2,0.9c1.2,0.4,1.7,1.1,1.7,2
		c0,1.1-0.9,2.1-2.7,2.1c-0.8,0-1.5-0.2-1.9-0.4L598.6,38.5z"/>
	<path d="M605.2,34.6h-1.8v-1.3h5.2v1.3h-1.8V40h-1.5v-5.4H605.2z"/>
</g>
<g>
	<path d="M505.7,57.7l-1.6-6.7h1.6l0.5,2.8c0.1,0.8,0.3,1.7,0.4,2.4l0,0c0.1-0.7,0.3-1.5,0.4-2.4l0.6-2.8h1.6l0.5,2.8
		c0.1,0.8,0.3,1.5,0.4,2.3l0,0c0.1-0.8,0.2-1.5,0.4-2.3L511,51h1.5l-1.7,6.7h-1.6l-0.6-2.9c-0.1-0.7-0.2-1.3-0.3-2.1l0,0
		c-0.1,0.8-0.2,1.4-0.4,2.1l-0.6,2.9H505.7z"/>
	<path d="M517.5,54.8H515v1.6h2.8v1.2h-4.3V51h4.1v1.2H515v1.4h2.5V54.8z"/>
	<path d="M520.4,56l-0.5,1.7h-1.6l2.1-6.7h2l2.1,6.7h-1.6l-0.5-1.7H520.4z M522.1,54.8l-0.4-1.4c-0.1-0.4-0.2-0.9-0.3-1.3l0,0
		c-0.1,0.4-0.2,0.9-0.3,1.3l-0.4,1.4H522.1z"/>
	<path d="M525.4,51h1.5v5.5h2.7v1.3h-4.2V51z"/>
	<path d="M530.7,52.2h-1.8V51h5.2v1.3h-1.8v5.5h-1.5v-5.6H530.7z"/>
	<path d="M536.4,51v2.6h2.5V51h1.5v6.7H539v-2.8h-2.5v2.8H535V51H536.4z"/>
	<path d="M506.4,66l-0.5,1.7h-1.6l2.1-6.7h2l2.1,6.7h-1.6l-0.5-1.7H506.4z M508.1,64.8l-0.4-1.4c-0.1-0.4-0.2-0.9-0.3-1.3l0,0
		c-0.1,0.4-0.2,0.9-0.3,1.3l-0.4,1.4H508.1z"/>
	<path d="M512.4,67.7l-2.2-6.7h1.7l0.8,2.9c0.2,0.8,0.4,1.6,0.6,2.4l0,0c0.2-0.8,0.4-1.6,0.6-2.4l0.9-2.9h1.6l-2.3,6.7
		C514.1,67.7,512.4,67.7,512.4,67.7z"/>
	<path d="M521.2,64.8h-2.5v1.6h2.8v1.2h-4.3V61h4.1v1.2h-2.6v1.4h2.5V64.8z"/>
	<path d="M522.5,67.7V61h1.8l1.4,2.5c0.4,0.7,0.8,1.5,1.1,2.3l0,0c-0.1-0.9-0.1-1.8-0.1-2.8v-2h1.4v6.7h-1.6l-1.4-2.6
		c-0.4-0.7-0.8-1.6-1.2-2.4l0,0c0,0.9,0.1,1.8,0.1,2.9v2L522.5,67.7L522.5,67.7z"/>
	<path d="M530.9,61v3.9c0,1.2,0.4,1.8,1.2,1.8s1.2-0.6,1.2-1.8V61h1.5v3.8c0,2.1-1.1,3.1-2.8,3.1s-2.7-0.9-2.7-3.1V61H530.9z"/>
	<path d="M540.2,64.8h-2.5v1.6h2.8v1.2h-4.3V61h4.1v1.2h-2.6v1.4h2.5V64.8z"/>
</g>
<g>
	<path d="M658.1,55.2c0-0.8-0.1-1.8-0.1-2.8l0,0c-0.2,0.9-0.5,1.8-0.8,2.6l-0.8,2.6h-1.2l-0.7-2.6c-0.2-0.8-0.4-1.8-0.6-2.6l0,0
		c0,0.9-0.1,2-0.1,2.8l-0.1,2.6h-1.4l0.4-6.7h2l0.7,2.3c0.2,0.8,0.4,1.6,0.6,2.4l0,0c0.2-0.8,0.4-1.7,0.6-2.4l0.7-2.2h2l0.4,6.7
		h-1.5L658.1,55.2z"/>
	<path d="M667,54.4c0,2.2-1.3,3.5-3.3,3.5s-3.2-1.5-3.2-3.4c0-2,1.3-3.5,3.3-3.5C665.9,51,667,52.5,667,54.4z M662.2,54.5
		c0,1.3,0.6,2.2,1.6,2.2s1.6-1,1.6-2.3c0-1.2-0.6-2.3-1.6-2.3C662.8,52.2,662.2,53.1,662.2,54.5z"/>
	<path d="M674.2,54.4c0,2.2-1.3,3.5-3.3,3.5s-3.2-1.5-3.2-3.4c0-2,1.3-3.5,3.3-3.5C673.1,51,674.2,52.5,674.2,54.4z M669.3,54.5
		c0,1.3,0.6,2.2,1.6,2.2s1.6-1,1.6-2.3c0-1.2-0.6-2.3-1.6-2.3C669.9,52.2,669.3,53.1,669.3,54.5z"/>
	<path d="M675.2,57.8v-6.7h1.8l1.4,2.5c0.4,0.7,0.8,1.5,1.1,2.3l0,0c-0.1-0.9-0.1-1.8-0.1-2.8v-2h1.4v6.7h-1.6l-1.4-2.6
		c-0.4-0.7-0.8-1.6-1.2-2.4l0,0c0,0.9,0.1,1.8,0.1,2.9v2L675.2,57.8L675.2,57.8z"/>
	<path d="M650.5,66.1l-0.5,1.7h-1.6l2.1-6.7h2l2.1,6.7H653l-0.5-1.7H650.5z M652.2,64.9l-0.4-1.4c-0.1-0.4-0.2-0.9-0.3-1.3l0,0
		c-0.1,0.4-0.2,0.9-0.3,1.3l-0.4,1.4H652.2z"/>
	<path d="M656.5,67.8l-2.2-6.7h1.7l0.8,2.9c0.2,0.8,0.4,1.6,0.6,2.4l0,0c0.2-0.8,0.4-1.6,0.6-2.4l0.9-2.9h1.6l-2.3,6.7
		C658.2,67.8,656.5,67.8,656.5,67.8z"/>
	<path d="M665.2,65h-2.5v1.6h2.8v1.2h-4.3v-6.7h4.2v1.2h-2.6v1.4h2.5V65H665.2z"/>
	<path d="M666.6,67.8v-6.7h1.8l1.4,2.5c0.4,0.7,0.8,1.5,1.1,2.3l0,0c-0.1-0.9-0.1-1.8-0.1-2.8v-2h1.4v6.7h-1.6l-1.4-2.6
		c-0.4-0.7-0.8-1.6-1.2-2.4l0,0c0,0.9,0.1,1.8,0.1,2.9v2L666.6,67.8L666.6,67.8z"/>
	<path d="M675,61.1V65c0,1.2,0.4,1.8,1.2,1.8s1.2-0.6,1.2-1.8v-3.9h1.5v3.8c0,2.1-1.1,3.1-2.8,3.1s-2.7-0.9-2.7-3.1v-3.8
		C673.4,61.1,675,61.1,675,61.1z"/>
	<path d="M684.3,65h-2.5v1.6h2.8v1.2h-4.3v-6.7h4.2v1.2h-2.6v1.4h2.5V65H684.3z"/>
</g>
<g>
	<path d="M727.2,51.1c0.4-0.1,1.2-0.1,2-0.1c0.9,0,1.5,0.1,2,0.4c0.5,0.3,0.8,0.7,0.8,1.3s-0.3,1.2-1.1,1.4l0,0
		c0.8,0.2,1.3,0.8,1.3,1.7c0,0.6-0.3,1.1-0.7,1.4c-0.5,0.4-1.3,0.6-2.6,0.6c-0.8,0-1.3,0-1.6-0.1v-6.6
		C727.3,51.1,727.2,51.1,727.2,51.1z M728.7,53.7h0.5c0.8,0,1.2-0.3,1.2-0.8s-0.4-0.8-1.1-0.8c-0.3,0-0.5,0-0.6,0L728.7,53.7
		L728.7,53.7z M728.7,56.7c0.1,0,0.3,0,0.6,0c0.7,0,1.3-0.3,1.3-1s-0.6-0.9-1.4-0.9h-0.5L728.7,56.7L728.7,56.7z"/>
	<path d="M734.7,56l-0.5,1.7h-1.6l2.1-6.7h2l2.1,6.7h-1.6l-0.5-1.7H734.7z M736.4,54.9l-0.4-1.4c-0.1-0.4-0.2-0.9-0.3-1.3l0,0
		c-0.1,0.4-0.2,0.9-0.3,1.3l-0.4,1.4H736.4z"/>
	<path d="M745.1,57.4c-0.5,0.2-1.4,0.4-2.2,0.4c-1.2,0-2.1-0.3-2.7-0.9c-0.6-0.6-1-1.5-1-2.5c0-2.2,1.6-3.5,3.8-3.5
		c0.9,0,1.5,0.2,1.9,0.3l-0.3,1.2c-0.4-0.2-0.8-0.3-1.6-0.3c-1.3,0-2.2,0.7-2.2,2.2c0,1.4,0.9,2.2,2.1,2.2c0.3,0,0.6,0,0.7-0.1V55
		h-1v-1.2h2.5V57.4z"/>
	<path d="M746.4,56.2c0.4,0.2,1,0.4,1.7,0.4s1.1-0.3,1.1-0.7s-0.3-0.7-1.1-0.9c-1.1-0.4-1.9-1-1.9-2c0-1.1,1-2,2.5-2
		c0.8,0,1.3,0.2,1.7,0.3l-0.3,1.2c-0.3-0.1-0.8-0.3-1.4-0.3c-0.7,0-1,0.3-1,0.7s0.4,0.6,1.2,0.9c1.2,0.4,1.7,1.1,1.7,2
		c0,1.1-0.9,2.1-2.7,2.1c-0.8,0-1.5-0.2-1.9-0.4L746.4,56.2z"/>
	<path d="M722.6,66l-0.5,1.7h-1.6l2.1-6.7h2l2.1,6.7h-1.6l-0.5-1.7H722.6z M724.3,64.9l-0.4-1.4c-0.1-0.4-0.2-0.9-0.3-1.3l0,0
		c-0.1,0.4-0.2,0.9-0.3,1.3l-0.4,1.4H724.3z"/>
	<path d="M728.6,67.7l-2.2-6.7h1.7l0.8,2.9c0.2,0.8,0.4,1.6,0.6,2.4l0,0c0.2-0.8,0.4-1.6,0.6-2.4L731,61h1.6l-2.3,6.7H728.6z"/>
	<path d="M737.4,64.9h-2.5v1.6h2.8v1.2h-4.3V61h4.1v1.2h-2.6v1.4h2.5V64.9z"/>
	<path d="M738.7,67.7V61h1.8l1.4,2.5c0.4,0.7,0.8,1.5,1.1,2.3l0,0c-0.1-0.9-0.1-1.8-0.1-2.8v-2h1.4v6.7h-1.6l-1.4-2.6
		c-0.4-0.7-0.8-1.6-1.2-2.4l0,0c0,0.9,0.1,1.8,0.1,2.9v2L738.7,67.7L738.7,67.7z"/>
	<path d="M747.2,61v3.9c0,1.2,0.4,1.8,1.2,1.8s1.2-0.6,1.2-1.8V61h1.5v3.8c0,2.1-1.1,3.1-2.8,3.1s-2.7-0.9-2.7-3.1V61H747.2z"/>
	<path d="M756.5,64.9H754v1.6h2.8v1.2h-4.3V61h4.1v1.2H754v1.4h2.5V64.9z"/>
</g>
<g>
	<g>
		<polygon class="st17" points="21.3,113.6 43.6,113.6 43.6,85.8 53.2,85.8 32.2,64.6 11.1,85.8 21.3,85.8 		"/>
		<path class="st3" d="M44.8,114.9H20V87.1H8l24.2-24.3l24,24.3H44.8V114.9z M22.5,112.3h19.8V84.5h7.9l-18-18.1L14.1,84.5h8.4
			V112.3z"/>
	</g>
</g>
</svg>
