<?xml version="1.0" encoding="utf-8"?>
<!-- Generator: Adobe Illustrator 27.0.1, SVG Export Plug-In . SVG Version: 6.00 Build 0)  -->
<svg version="1.1" id="Layer_1" xmlns="http://www.w3.org/2000/svg" xmlns:xlink="http://www.w3.org/1999/xlink" x="0px" y="0px"
	 viewBox="0 0 2500 1600" style="enable-background:new 0 0 2500 1600;" xml:space="preserve">
<style type="text/css">
	.st0{fill:#70987E;}
</style>
<g id="XMLID_2235_">
	<path id="XMLID_143_" class="st0" d="M2500,1258.8V1600H0v-344.5h54v-13.9c-2.5-0.2-9.8-1.5-7.7-12.3c0.3-1.1,0.5-2.6,0.7-4.1
		c0.1-0.7,0.2-1.3,0.2-2c0.7-5.5,1.2-12.5,1.8-19.3c0-0.4,0-0.7,0.1-1c0.1-1,0.2-2,0.3-3c0-0.5,0-0.9,0.1-1.4
		c0.1-0.8,0.2-1.7,0.3-2.5c0-0.5,0.1-1,0.1-1.5c0.1-0.7,0.2-1.5,0.3-2.2c0.1-0.5,0.1-1,0.2-1.5c0.1-0.6,0.2-1.3,0.3-1.9
		c0.1-0.5,0.2-0.9,0.2-1.4c0.2-0.6,0.3-1.1,0.4-1.7c0.1-0.4,0.2-0.8,0.2-1.1c0.2-0.6,0.3-1,0.4-1.5c0.1-0.3,0.2-0.6,0.3-0.9
		c0.2-0.4,0.3-0.8,0.5-1.1c0.1-0.2,0.2-0.5,0.3-0.7c0.1-0.3,0.3-0.5,0.5-0.8c0.1-0.1,0.2-0.2,0.3-0.3c0.3-0.3,0.6-0.4,1-0.4
		c0.3,0,0.6,0.1,0.9,0.4c0.1,0.1,0.2,0.2,0.3,0.3c0.2,0.3,0.4,0.5,0.6,0.8c0.1,0.2,0.2,0.4,0.3,0.7c0.1,0.3,0.3,0.7,0.4,1.1
		c0.1,0.3,0.2,0.6,0.3,0.9c0.1,0.5,0.3,0.9,0.4,1.4c0.1,0.4,0.2,0.8,0.2,1.2c0.2,0.5,0.3,1.1,0.4,1.7c0.1,0.4,0.1,0.9,0.2,1.3
		c0.1,0.7,0.2,1.3,0.3,2c0.1,0.5,0.1,0.9,0.2,1.4c0.1,0.8,0.2,1.5,0.3,2.3c0.1,0.5,0.1,0.9,0.2,1.4c0.1,0.9,0.2,1.8,0.2,2.7
		c0.1,0.4,0.1,0.7,0.2,1.1c0.1,1.2,0.2,2.3,0.3,3.4v0.5c0.6,6.5,1.1,13.1,1.7,18.5c0,0.3,0.1,0.6,0.1,0.9c0.1,0.7,0.1,1.3,0.2,2
		c0.2,1.6,0.5,3.1,0.7,4.3c2.1,10.8-5.2,12.1-7.6,12.3v13.9h31.2V1207h79.3v-13.3h50V1142h17.3v-83.1h9v-8.6h99.2v8.6h9.1v83.1h49.5
		v-106.9h75.2v68.4h90.3l36.1,83.8H642v-175.5h10v-6.5h193.4v6.5h10v175.5h66.2v-53.9h99.5v-39h85.2v-9.2h102.6v11.2h23.7v83.2
		h110.3v-61.9h-5.2v-7.8h5.2V986.1h-5.2v-7.8h42.4v-22.5h10.2v22.5h85.6v-22.5h10.2v22.5h42.4v7.8h-6v123.8h6v7.8h-6v61.9h73.4
		l32.8-55.8v-53.3h112.9v43.3l43.5,22.6v70.5h25.8V1149h4.6v-6.3h-4.6v-87.3h4.7v-6.6l43.3-41.5l42.8,41.5v6.6h5.2v87.3h-5.2v6.3
		h5.2v57.9h24.6v-83.1h42.3v-114.5h78v114.5h41.9v52.5h25v-113.2h13.2v-13.3l17.1-17.6l17.1,17.6h0.1v13.4h13.3v113.1h9.1v-6.8h30.3
		v-74.3h24.6V1035h104v210.3h13.4v-10.7l7.2-7.2v-9.8h46.5v-20.2h5.3v-4h42.6v4.8h5.6v60.6L2500,1258.8L2500,1258.8z"/>
</g>
</svg>
