<?xml version="1.0" encoding="utf-8"?>
<!-- Generator: Adobe Illustrator 27.0.1, SVG Export Plug-In . SVG Version: 6.00 Build 0)  -->
<svg version="1.1" id="Layer_1" xmlns="http://www.w3.org/2000/svg" xmlns:xlink="http://www.w3.org/1999/xlink" x="0px" y="0px"
	 viewBox="0 0 2500 1600" style="enable-background:new 0 0 2500 1600;" xml:space="preserve">
<style type="text/css">
	.st0{fill:url(#XMLID_00000114781417701743417690000008813628385167296897_);}
</style>
<linearGradient id="XMLID_00000013185750987318849120000013896203445715534752_" gradientUnits="userSpaceOnUse" x1="1250" y1="1745.1125" x2="1250" y2="2870.6057" gradientTransform="matrix(1 0 0 -1 0 3060)">
	<stop  offset="0" style="stop-color:#FFFFFF;stop-opacity:0.25"/>
	<stop  offset="0.1131" style="stop-color:#E2EAE5;stop-opacity:0.3383"/>
	<stop  offset="0.2979" style="stop-color:#B9CDC0;stop-opacity:0.4825"/>
	<stop  offset="0.4792" style="stop-color:#99B6A3;stop-opacity:0.624"/>
	<stop  offset="0.6533" style="stop-color:#83A58F;stop-opacity:0.7599"/>
	<stop  offset="0.8174" style="stop-color:#759B82;stop-opacity:0.888"/>
	<stop  offset="0.9609" style="stop-color:#70987E"/>
</linearGradient>
<polygon id="XMLID_321_" style="fill:url(#XMLID_00000013185750987318849120000013896203445715534752_);" points="2500,1227.9 
	2463.3,1227.9 2463.3,713.3 2453,713.3 2453,703.1 2357.7,703.1 2297,703.1 2297,713.3 2286.7,713.3 2286.7,1179.5 2238.1,1179.5 
	2238.1,1036.1 2189.4,1036.1 2189.4,630.5 2179.1,630.5 2179.1,617.3 2135.8,617.3 2135.8,555.7 2126.9,555.7 2126.9,617.3 
	2013.2,617.3 2013.2,555.7 2004.3,555.7 2004.3,617.3 1966.2,617.3 1966.2,630.5 1955.9,630.5 1955.9,980.4 1955.9,990 
	1955.9,1085.5 1945.1,1085.5 1945.1,1133.9 1904.3,1133.9 1904.3,1210.9 1900.6,1210.9 1900.6,572.5 1878.5,572.5 1878.5,538.9 
	1850.1,494.3 1821.6,538.9 1821.4,538.9 1821.4,572.8 1799.3,572.8 1799.3,1028.2 1757.6,1093 1757.6,1273.5 1727.5,1273.5 
	1727.5,1177.5 1733.6,1177.5 1733.6,1165.4 1727.5,1165.4 1727.5,973.7 1733.6,973.7 1733.6,961.7 1727.5,961.7 1727.5,770.5 
	1733.6,770.5 1733.6,758.4 1686.5,758.4 1686.5,698.2 1692.6,698.2 1692.6,686 1602.6,686 1602.6,698.2 1607.9,698.2 1607.9,758.4 
	1594.2,758.4 1594.2,770.5 1599.6,770.5 1599.6,961.7 1594.2,961.7 1594.2,973.7 1599.6,973.7 1599.6,1165.4 1594.2,1165.4 
	1594.2,1177.5 1599.6,1177.5 1599.6,1216.9 1527.5,1216.9 1527.5,616.8 1485.1,616.8 1485.1,566.8 1452.9,566.8 1452.9,513.4 
	1429.5,513.4 1342.3,513.4 1342.3,566.8 1310.1,566.8 1310.1,616.8 1267.7,616.8 1267.7,1093 1159.6,1093 1159.6,678.9 
	1133.9,678.9 1133.9,428 1084.9,428 1084.9,362 1076,362 1076,428 1023.8,428 1023.8,817 983.4,774.6 983.4,671.4 902.8,580.8 
	822.2,671.4 822.2,1061.9 768.4,1061.9 768.4,1236.4 723.8,1236.4 723.8,1071.4 728.6,1071.4 728.6,1060.4 723.8,1060.4 
	723.8,732.3 728.6,732.3 728.6,721.3 689.3,721.3 689.3,671.3 685.5,671.3 679.8,671.3 679.8,721.3 665.8,721.3 600.4,721.3 
	600.4,671.3 596.6,671.3 590.9,671.3 590.9,721.3 551.6,721.3 551.6,732.3 557.1,732.3 557.1,1060.4 551.6,1060.4 551.6,1071.4 
	557.1,1071.4 557.1,1236.4 542.5,1236.4 542.5,1013.9 500.8,957.9 500.8,686.5 483.3,661.8 483.3,633.2 463,633.2 379.5,515.6 
	339.3,515.6 339.3,856 288.1,856 288.1,1051.6 242.3,1096.3 242.3,1221.1 206.2,1221.1 206.2,882 147.2,882 147.2,1042.6 
	139.6,1042.6 139.6,760.4 145.2,760.4 145.2,738.7 90.4,738.7 7.3,738.7 7.3,760.4 12.8,760.4 12.8,1173.9 0,1173.9 0,1611.3 
	2500,1631 "/>
</svg>
