<?xml version="1.0" encoding="utf-8"?>
<!-- Generator: Adobe Illustrator 27.0.1, SVG Export Plug-In . SVG Version: 6.00 Build 0)  -->
<svg version="1.1" id="Layer_1" xmlns="http://www.w3.org/2000/svg" xmlns:xlink="http://www.w3.org/1999/xlink" x="0px" y="0px"
	 viewBox="0 0 2500 1600" style="enable-background:new 0 0 2500 1600;" xml:space="preserve">
<style type="text/css">
	.st0{fill:url(#XMLID_00000168802806762039126530000014232979551887284407_);}
</style>
<linearGradient id="XMLID_00000129899183973567820660000012976127544061007746_" gradientUnits="userSpaceOnUse" x1="1250" y1="-1683.725" x2="1250" y2="-2515.6619" gradientTransform="matrix(1 0 0 1 0 2929)">
	<stop  offset="0" style="stop-color:#FFFFFF;stop-opacity:0.33"/>
	<stop  offset="0.1623" style="stop-color:#D4E0D9;stop-opacity:0.4387"/>
	<stop  offset="0.3293" style="stop-color:#B0C6B8;stop-opacity:0.5506"/>
	<stop  offset="0.4977" style="stop-color:#94B29F;stop-opacity:0.6634"/>
	<stop  offset="0.6657" style="stop-color:#80A48D;stop-opacity:0.776"/>
	<stop  offset="0.8332" style="stop-color:#749B82;stop-opacity:0.8882"/>
	<stop  offset="1" style="stop-color:#70987E"/>
</linearGradient>
<polygon id="XMLID_00000172403705269441615130000011423170263554373268_" style="fill:url(#XMLID_00000129899183973567820660000012976127544061007746_);" points="
	2500,1266.5 2472.1,1266.5 2472.1,1234.2 2477.4,1234.2 2477.4,1224.4 2472.1,1224.4 2472.1,1067.8 2477.4,1067.8 2477.4,1058 
	2472.1,1058 2472.1,901.9 2477.4,901.9 2477.4,892.1 2463.7,892.1 2463.7,842.9 2469,842.9 2469,833.1 2379,833.1 2379,842.9 
	2385.1,842.9 2385.1,892.1 2338,892.1 2338,901.9 2344.1,901.9 2344.1,1058 2338,1058 2338,1067.8 2344.1,1067.8 2344.1,1224.4 
	2338,1224.4 2338,1234.2 2344.1,1234.2 2344.1,1312.5 2314,1312.5 2314,1165.1 2272.3,1112.2 2272.3,740.6 2250.2,740.6 
	2250.2,712.9 2250,712.9 2221.6,676.5 2193.1,712.9 2193.1,740.3 2171,740.3 2171,1261.4 2167.3,1261.4 2167.3,1198.7 
	2126.5,1198.7 2126.5,1159.1 2115.7,1159.1 2115.7,1081.1 2115.7,1073.4 2115.7,787.6 2105.4,787.6 2105.4,777 1892.5,777 
	1892.5,787.6 1882.2,787.6 1882.2,1118.7 1833.6,1118.7 1833.6,1235.8 1784.9,1235.8 1784.9,716.9 1774.6,716.9 1774.6,708.5 
	1713.9,708.5 1575.6,708.5 1575.6,716.9 1565.2,716.9 1565.2,1275.3 1532,1275.3 1532,898.5 1482.5,898.5 1482.5,778.1 
	1390.7,778.1 1390.7,1064.4 1329.6,1064.4 1329.6,743.7 1318.3,743.7 1318.3,730.3 1194.2,730.3 1194.2,743.7 1182.9,743.7 
	1182.9,974.8 1111.9,974.8 1111.9,1216.9 1075,1216.9 1075,1093.1 1026.6,1093.1 1026.6,864 1031.4,864 1031.4,855.1 967.1,855.1 
	967.1,799.3 963.3,799.3 957.6,799.3 957.6,855.1 943.8,855.1 879,855.1 879,799.3 875.2,799.3 869.6,799.3 869.6,855.1 
	803.4,855.1 803.4,864 808.8,864 808.8,967.4 803.4,967.4 803.4,976.3 808.8,976.3 808.8,1019.1 762.8,1019.1 762.8,1085 
	753.8,1085 753.8,869.8 692.5,815.5 692.5,967.3 654,967.3 654,822.7 637.2,822.7 637.2,801.8 615.5,774.1 593.8,801.8 593.7,801.8 
	593.7,822.9 576.9,822.9 576.9,1177.4 512.6,1177.4 512.6,874.7 460.2,874.7 460.2,1011.8 410.3,1011.8 410.3,1011.4 415.4,1011.4 
	415.4,855.6 410.3,855.6 410.3,846.6 362.7,790.1 315.8,846.6 315.8,855.6 310.1,855.6 310.1,926.6 315.8,926.6 315.8,935.2 
	310.1,935.2 310.1,1094.5 261.2,1094.5 201.4,958.1 201.4,858.8 152.2,858.8 70.8,952.4 70.8,1026.3 70.8,1059.3 70.8,1112.7 
	0,1112.7 0,1614.4 2500,1598.4 "/>
</svg>
