<?xml version="1.0" encoding="utf-8"?>
<!-- Generator: Adobe Illustrator 27.0.1, SVG Export Plug-In . SVG Version: 6.00 Build 0)  -->
<svg version="1.1" id="Layer_1" xmlns:serif="http://www.serif.com/"
	 xmlns="http://www.w3.org/2000/svg" xmlns:xlink="http://www.w3.org/1999/xlink" x="0px" y="0px" viewBox="0 0 24 24"
	 style="enable-background:new 0 0 24 24;" xml:space="preserve">
<style type="text/css">
	.st0{fill-rule:evenodd;clip-rule:evenodd;fill:#286F50;}
</style>
<path class="st0" d="M9.3,1.4C7.9,2.1,6.7,2.7,6.7,2.8s3.4,1.8,3.6,1.8c0.1,0,0.5-0.2,0.9-0.4L12,3.7l0.9,0.4l0.9,0.4L15.1,4
	c2.1-1,2.4-1.1,2.3-1.1c0,0-0.8-0.5-2.9-1.6c-1-0.5-2-1-2.2-1.2C12.2,0.1,12,0,12,0S10.8,0.6,9.3,1.4L9.3,1.4z M3.1,4.6L1.6,5.4v3.4
	c0,1.9,0,3.4,0,3.4s0.8-0.3,1.6-0.7l1.6-0.7V7.2l0.8,0.4c0.6,0.3,1.2,0.6,1.8,1l1,0.6L8.9,9c0.3-0.1,0.6-0.3,0.8-0.4
	c0.2-0.1,0.8-0.3,1.2-0.5s0.8-0.4,0.9-0.4c0.1-0.1-0.9-0.6-3.4-1.9C6.5,4.8,4.8,4,4.7,4S3.9,4.2,3.1,4.6L3.1,4.6z M17.7,4.8
	c-1,0.5-1.8,0.9-1.8,0.9s0.6,0.4,1.2,0.7c0.7,0.4,1.2,0.7,1.2,0.7S17.7,7.4,17,7.7c-0.7,0.3-2.6,1.2-4.1,1.9L7.8,12
	c-1.3,0.6-2.4,1.1-2.6,1.2c-2.6,1.2-3.4,1.5-3.5,1.6c-0.1,0.1-0.1,0.4-0.1,2.1v2l1.3,0.7l1.3,0.7L6,19.5c1-0.5,1.8-0.9,1.8-0.9
	s-0.2-0.2-0.4-0.3c-0.2-0.1-0.7-0.4-1.1-0.6c-0.3-0.2-0.7-0.4-0.8-0.4c-0.1,0-0.1-0.1-0.1-0.1s0.8-0.4,1.8-0.9
	c1.9-0.9,3.4-1.5,6.6-3c1.4-0.6,2.8-1.3,4.2-1.9c1.2-0.6,2.7-1.2,3.2-1.5l1-0.4v-2v-2L21,4.7C20.3,4.3,19.6,4,19.6,4
	S18.7,4.4,17.7,4.8L17.7,4.8z M22,12.1c-0.2,0.1-0.6,0.3-0.9,0.4c-0.3,0.1-0.8,0.4-1.2,0.5l-0.7,0.3v1.8c0,1,0,1.8-0.1,1.8
	s-1.3-0.7-2.6-1.3c-0.9-0.5-1-0.5-1.2-0.4c-0.1,0.1-0.9,0.4-1.7,0.7c-0.8,0.3-1.5,0.7-1.5,0.7s1.6,0.9,3.5,1.9l3.6,1.9l1.5-0.8
	c0.8-0.4,1.6-0.8,1.6-0.9c0.1-0.1,0.1-6.7,0-6.7C22.3,11.9,22.2,12,22,12.1L22,12.1z M13.5,19.8c-0.3,0.1-0.5,0.2-0.8,0.3
	c-0.8,0.3-0.6,0.4-1.6-0.1c-0.6-0.3-0.9-0.4-1-0.4S9.2,20,8.4,20.4s-1.6,0.7-1.6,0.7c-0.4,0,0.2,0.4,2.5,1.5L12,24l1.1-0.6
	c0.6-0.3,1.9-0.9,2.8-1.4c0.9-0.4,1.6-0.8,1.6-0.8s-0.8-0.4-1.7-0.9l-1.7-0.8L13.5,19.8z"/>
</svg>
