<?xml version="1.0" encoding="utf-8"?>
<!-- Generator: Adobe Illustrator 27.0.1, SVG Export Plug-In . SVG Version: 6.00 Build 0)  -->
<svg version="1.1" id="Layer_1" xmlns:serif="http://www.serif.com/"
	 xmlns="http://www.w3.org/2000/svg" xmlns:xlink="http://www.w3.org/1999/xlink" x="0px" y="0px" viewBox="0 0 24 24"
	 style="enable-background:new 0 0 24 24;" xml:space="preserve">
<style type="text/css">
	.st0{fill:#286F50;}
</style>
<g>
	<path class="st0" d="M5,11.4c0-0.1,0-0.3,0.1-0.4c0.1-0.1,0.1-0.2,0.2-0.3c0.1-0.1,0.2-0.2,0.3-0.2c0.1-0.1,0.3-0.1,0.4-0.1l1.7,0
		c0.3,0,0.5,0.1,0.7,0.3c0.2,0.2,0.3,0.5,0.3,0.7v6.4c0.2-0.1,0.4-0.1,0.7-0.2c0.2,0,0.4-0.1,0.5-0.3c0.1-0.2,0.2-0.3,0.2-0.5v-8
		c0-0.3,0.1-0.5,0.3-0.7c0.2-0.2,0.5-0.3,0.7-0.3h1.7c0.3,0,0.5,0.1,0.7,0.3c0.2,0.2,0.3,0.5,0.3,0.7v7.4c0,0,0.4-0.2,0.8-0.3
		c0.2-0.1,0.3-0.2,0.4-0.3c0.1-0.1,0.1-0.3,0.1-0.5V6.3c0-0.3,0.1-0.5,0.3-0.7s0.5-0.3,0.7-0.3h1.7c0.3,0,0.5,0.1,0.7,0.3
		c0.2,0.2,0.3,0.5,0.3,0.7v7.3c1.5-1.1,3-2.4,4.2-3.9c0.2-0.2,0.3-0.5,0.3-0.8c0-0.3,0-0.6-0.1-0.8c-0.5-1.6-1.4-3-2.6-4.2
		c-1.1-1.2-2.5-2.2-4.1-2.9c-1.5-0.7-3.2-1-4.9-1C10.2,0,8.5,0.4,7,1.1C5.5,1.8,4.1,2.8,3,4C1.9,5.3,1.1,6.7,0.6,8.3
		C0,9.9-0.1,11.6,0,13.3s0.7,3.3,1.5,4.7c0.1,0.3,0.4,0.5,0.6,0.6s0.5,0.2,0.8,0.2c0.3,0,0.7-0.1,1.2-0.1c0.2,0,0.4-0.1,0.5-0.3
		C4.9,18.2,5,18,5,17.8L5,11.4z"/>
	<path class="st0" d="M4.9,21.7c1.8,1.3,3.9,2.1,6.1,2.3c2.2,0.2,4.4-0.3,6.4-1.3s3.6-2.5,4.8-4.4c1.2-1.9,1.8-4.1,1.8-6.3
		c0-0.3,0-0.6,0-0.8C19.6,17.7,11.5,20.8,4.9,21.7"/>
</g>
</svg>
