<?xml version="1.0" encoding="utf-8"?>
<!-- Generator: Adobe Illustrator 27.0.1, SVG Export Plug-In . SVG Version: 6.00 Build 0)  -->
<svg version="1.1" id="Layer_1" xmlns="http://www.w3.org/2000/svg" xmlns:xlink="http://www.w3.org/1999/xlink" x="0px" y="0px"
	 viewBox="0 0 1400 1400" style="enable-background:new 0 0 1400 1400;" xml:space="preserve">
<style type="text/css">
	.st0{fill:#C9FED7;}
	.st1{enable-background:new    ;}
	.st2{fill:#FF0000;stroke:#000000;stroke-width:7;stroke-miterlimit:10;}
</style>
<rect x="206" y="205.9" transform="matrix(0.7071 -0.7071 0.7071 0.7071 -289.8855 699.9343)" width="987.9" height="987.9"/>
<rect x="225.9" y="226" transform="matrix(0.7071 -0.7071 0.7071 0.7071 -289.9168 699.8703)" class="st0" width="947.9" height="947.9"/>
<g class="st1">
	<path d="M541.4,288.8h29.8v10.3h-41.4v-60.3h41.4v10.3h-29.8V288.8z"/>
	<path d="M621,238.8v60.3h-41.4v-60.3H621z M610.2,249.1h-18.9v39.6h18.9V249.1z"/>
	<path d="M641,288.8h29.8v10.3h-41.4v-60.3H641V288.8z"/>
	<path d="M690.8,288.8h29.8v10.3h-41.4v-60.3h11.6V288.8z"/>
	<path d="M740.6,249.1V264h29.8v9.8h-29.8v14.9h29.8v10.3H729v-60.3h41.4v10.3H740.6z"/>
	<path d="M790.4,288.8h29.8v10.3h-41.4v-60.3h41.4v10.3h-29.8V288.8z"/>
	<path d="M844.3,249.1h-15.7v-10.3h41.4v10.3h-14.2v50h-11.6V249.1z"/>
</g>
<g class="st1">
	<path d="M520.4,358.9v30.2h-11.6v-30.2l-14.6-30.2h11.6l9.4,19.1l9.6-19.1h10.9L520.4,358.9z"/>
	<path d="M585.4,328.8v60.3H544v-60.3H585.4z M574.6,339.1h-18.9v39.6h18.9V339.1z"/>
	<path d="M624.4,328.8h10.9v60.3h-41.4v-60.3h11.6v50h18.9V328.8z"/>
	<path d="M643.6,389.1v-60.3H685v35.1h-14.2l14.2,25.2h-10.9l-14.9-25.2h-4.1v25.2H643.6z M655.2,339.1V354h18.9v-14.9H655.2z"/>
	<path d="M756.2,328.8v22.8l-5.1,7.5l5.1,7.6v22.4h-41.4v-60.3H756.2z M726.4,339.1V354h18.9v-14.9H726.4z M726.4,363.8v14.9h18.9
		v-14.9H726.4z"/>
	<path d="M795.1,363.8h-18.9v25.2h-11.6v-60.3H806v60.3h-10.9V363.8z M776.2,339.1V354h18.9v-14.9H776.2z"/>
	<path d="M832.9,354h22.9v35.1h-41.4v-60.3h41.4v10.3H826v39.6h18.9v-14.9h-12V354z"/>
	<path d="M864.2,363.8v-35.1h41.4v10.3h-29.8V354h29.8v35.1h-41.4v-10.3h30.5v-14.9H864.2z"/>
</g>
<g class="st1">
	<path d="M436,468.8h29.8v10.3h-41.4v-60.3H436V468.8z"/>
	<path d="M485.8,429.1V444h29.8v9.8h-29.8v14.9h29.8v10.3h-41.4v-60.3h41.4v10.3H485.8z"/>
	<path d="M539.7,429.1H524v-10.3h41.4v10.3h-14.2v50h-11.6V429.1z"/>
	<path d="M579,429.6h-5.2v-10.8h11.6v10.8l-4.7,10.1h-6.6L579,429.6z"/>
	<path d="M593.8,453.8v-35.1h41.4v10.3h-29.8V444h29.8v35.1h-41.4v-10.3h30.5v-14.9H593.8z"/>
	<path d="M676.6,479.1H665v-60.3h41.4v10.3h-29.8V444h29.8v9.8h-29.8V479.1z"/>
	<path d="M745.3,418.8h10.9v60.3h-41.4v-60.3h11.6v50h18.9V418.8z"/>
	<path d="M776.2,468.8H806v10.3h-41.4v-60.3H806v10.3h-29.8V468.8z"/>
	<path d="M826,479.1h-11.6v-60.3H826V444l18.9-25.2h10.9l-20.2,29.4l20.2,30.9h-10.9L826,453.8V479.1z"/>
	<path d="M875.8,479.1h-11.6v-60.3h11.6V479.1z"/>
	<path d="M895.8,479.1h-11.6v-60.3h11.6l18.9,33.8v-33.8h10.9v60.3h-10.9l-18.9-34.8V479.1z"/>
	<path d="M952.5,444h22.9v35.1H934v-60.3h41.4v10.3h-29.8v39.6h18.9v-14.9h-12V444z"/>
</g>
<g>
	<path d="M521.7,669.9h150.6v230.7H399.9V503.9h272.4v68H476.2v260.8h124.6v-98.1h-79L521.7,669.9L521.7,669.9z"/>
	<path d="M999.9,503.9v396.7H727.5V503.9H999.9z M928.4,571.8H803.8v260.8h124.6L928.4,571.8L928.4,571.8z"/>
</g>
<path class="st2" d="M165.6,737.1l111.9,60.4l-17.9,17.9l310.8,310.8l43.1,7.3l93.3,93.3l-62.6-11.2l11.2,62.6l-93.3-93.3l-7.3-43.1
	L243.9,831L226,848.9L165.6,737.1z"/>
</svg>
