<?xml version="1.0" encoding="utf-8"?>
<!-- Generator: Adobe Illustrator 27.0.1, SVG Export Plug-In . SVG Version: 6.00 Build 0)  -->
<svg version="1.1" id="Layer_1" xmlns="http://www.w3.org/2000/svg" xmlns:xlink="http://www.w3.org/1999/xlink" x="0px" y="0px"
	 viewBox="0 0 1400 1400" style="enable-background:new 0 0 1400 1400;" xml:space="preserve">
<style type="text/css">
	.st0{fill:#C9FED7;}
	.st1{font-family:'SquareFont';}
	.st2{font-size:86px;}
	.st3{fill:#FF0000;stroke:#000000;stroke-width:7;stroke-miterlimit:10;}
</style>
<rect x="205.9" y="206" transform="matrix(-0.7071 0.7071 -0.7071 -0.7071 1689.7512 699.9606)" width="987.9" height="987.9"/>
<rect x="225.9" y="226" transform="matrix(0.7071 0.7071 -0.7071 0.7071 699.9305 -289.9029)" class="st0" width="947.9" height="947.9"/>
<text transform="matrix(1 0 0 1 525.5995 299.0831)"><tspan x="0" y="0" class="st1 st2">COLLECT</tspan><tspan x="-35.6" y="90" class="st1 st2">YOUR BAGS</tspan><tspan x="-105.4" y="180" class="st1 st2">LET’s FUCKING</tspan></text>
<g>
	<path d="M521.7,669.9h150.6v230.7H399.9V503.9h272.4v68H476.2v260.8h124.6v-98.1h-79V669.9z"/>
	<path d="M999.9,503.9v396.7H727.5V503.9H999.9z M928.4,571.8H803.8v260.8h124.6V571.8z"/>
</g>
<path class="st3" d="M165.6,737.1l111.9,60.4l-17.9,17.9l310.8,310.8l43.1,7.3l93.3,93.3l-62.6-11.2l11.2,62.6l-93.3-93.3l-7.3-43.1
	L243.9,831L226,848.9L165.6,737.1z"/>
</svg>
