<?xml version="1.0" encoding="utf-8"?>
<!-- Generator: Adobe Illustrator 27.0.1, SVG Export Plug-In . SVG Version: 6.00 Build 0)  -->
<svg version="1.1" id="Layer_1" xmlns="http://www.w3.org/2000/svg" xmlns:xlink="http://www.w3.org/1999/xlink" x="0px" y="0px"
	 viewBox="0 0 650 431.7" style="enable-background:new 0 0 650 431.7;" xml:space="preserve">
<style type="text/css">
	.st0{fill:#FF0000;stroke:#231F20;stroke-width:5;stroke-miterlimit:10;}
	.st1{enable-background:new    ;}
	.st2{fill:#286F50;}
	.st3{font-family:'SquareFont';}
	.st4{font-size:14px;}
</style>
<g>
	<path class="st0" d="M259.1,383.9c0,0,4.7-42.5-21.9-67.6l-30.9-30.1l-14.5,14.2v-55.9h59.1l-13.3,13.8l36,34.5
		c0,0,15.7,12.7,22.3,31.2c0,0,6.7,6.2,6.3,59.9v46.8h-43.1V383.9z"/>
	<path class="st0" d="M390.9,383.9c0,0-4.7-42.5,21.9-67.6l30.9-30.1l14.5,14.2v-55.9h-59.1l13.3,13.8l-36,34.5
		c0,0-15.7,12.7-22.3,31.2c0,0-6.7,6.2-6.3,59.9v46.8h43.1V383.9z"/>
	<polygon class="st0" points="303.6,430.7 347.5,430.7 347.5,217.9 366.5,217.9 325.2,176.2 283.5,217.9 303.6,217.9 	"/>
</g>
<g>
	<g class="st1">
		<path d="M69.1,178.2h-4.6v-22.4h4.6V178.2z"/>
		<path d="M89.1,155.8v22.4H72.5v-22.4H89.1z M84.7,159.6h-7.6v14.8h7.6V159.6z"/>
		<path d="M100.7,155.8V167h-8.3v-11.2C92.4,155.8,100.7,155.8,100.7,155.8z M98.4,178.2h-4.6l15.8-22.4h4.6L98.4,178.2z
			 M98.6,157.7h-3.8v7.4h3.8V157.7z M115.4,166.9v11.2h-8.3v-11.2H115.4z M113.2,168.8h-3.8v7.4h3.8V168.8z"/>
	</g>
	<g class="st1">
		<path d="M6.4,212.8h12v3.8H1.7v-22.4h16.6v3.8h-12L6.4,212.8L6.4,212.8z"/>
		<path d="M38.3,194.2v22.4H21.7v-22.4H38.3z M33.9,198h-7.6v14.8h7.6V198z"/>
		<path d="M46.3,216.6h-4.6v-22.4h4.6l4.7,12.3l4.9-12.3h4.4v22.4h-4.4v-9.4l-3.4,9.4h-2.7l-3.5-9.4V216.6z"/>
		<path d="M68.3,216.6h-4.6v-22.4h4.6l4.7,12.3l4.9-12.3h4.4v22.4h-4.4v-9.4l-3.4,9.4h-2.7l-3.5-9.4V216.6z"/>
		<path d="M90.3,216.6h-4.6v-22.4h4.6V216.6z"/>
		<path d="M93.7,207.2v-13h16.6v3.8h-12v5.5h12v13H93.7v-3.8h12.2v-5.5H93.7z"/>
		<path d="M113.6,207.2v-13h16.6v3.8h-12v5.5h12v13h-16.6v-3.8h12.2v-5.5H113.6z"/>
		<path d="M138.3,216.6h-4.6v-22.4h4.6V216.6z"/>
		<path d="M158.2,194.2v22.4h-16.6v-22.4H158.2z M153.9,198h-7.6v14.8h7.6V198z"/>
		<path d="M166.3,216.6h-4.6v-22.4h4.6l7.6,12.6v-12.6h4.4v22.4h-4.4l-7.6-13V216.6z"/>
	</g>
</g>
<g>
	<g class="st1">
		<path d="M305.8,35.9h-12.2v-3.8h16.6v22.4h-4.4V35.9z"/>
		<path d="M330.1,32.1v22.4h-16.6V32.1H330.1z M325.8,35.9h-7.6v14.8h7.6V35.9z"/>
		<path d="M341.8,32.1v11.2h-8.3V32.1H341.8z M339.5,54.5h-4.6l15.8-22.4h4.6L339.5,54.5z M339.6,34h-3.8v7.4h3.8V34z M356.5,43.2
			v11.2h-8.3V43.2H356.5z M354.3,45.2h-3.8v7.4h3.8V45.2z"/>
	</g>
	<g class="st1">
		<path d="M303.4,70.5V79l-2,2.8l2,2.8v8.3h-16.6V70.5H303.4z M291.4,74.3v5.5h7.6v-5.5H291.4z M291.4,83.5V89h7.6v-5.5H291.4z"/>
		<path d="M319,70.5h4.4v22.4h-16.6V70.5h4.6v18.6h7.6V70.5z"/>
		<path d="M337.2,81.7v11.2h-4.6V81.7l-5.9-11.2h4.6l3.8,7.1l3.8-7.1h4.4L337.2,81.7z"/>
		<path d="M346.7,83.5v-13h16.6v3.8h-12v5.5h12v13h-16.6V89h12.2v-5.5H346.7z"/>
	</g>
</g>
<g>
	<g class="st1">
		<path d="M550,174.4v3.8h-16.6v-13h12.2v-5.5h-12.2v-3.8H550v13h-12v5.5H550z"/>
		<path d="M569.9,155.8v22.4h-16.6v-22.4H569.9z M565.6,159.6H558v14.8h7.6V159.6z"/>
		<path d="M581.6,155.8V167h-8.3v-11.2H581.6z M579.3,178.2h-4.6l15.8-22.4h4.6L579.3,178.2z M579.4,157.7h-3.8v7.4h3.8V157.7z
			 M596.3,166.9v11.2H588v-11.2H596.3z M594.1,168.8h-3.8v7.4h3.8V168.8z"/>
	</g>
	<g class="st1">
		<path d="M497.9,194.2v8.5l-2,2.8l2,2.8v8.3h-16.6v-22.4L497.9,194.2L497.9,194.2z M486,198v5.5h7.6V198H486z M486,207.2v5.5h7.6
			v-5.5H486z"/>
		<path d="M513.5,207.2h-7.6v9.4h-4.6v-22.4h16.6v22.4h-4.4L513.5,207.2L513.5,207.2z M505.9,198v5.5h7.6V198H505.9z"/>
		<path d="M528.7,203.6h9.2v13h-16.6v-22.4h16.6v3.8h-12v14.8h7.6v-5.5h-4.8V203.6z"/>
		<path d="M541.2,207.2v-13h16.6v3.8h-12v5.5h12v13h-16.6v-3.8h12.2v-5.5H541.2z"/>
		<path d="M576,198h-6.3v-3.8h16.6v3.8h-5.7v18.6H576V198z"/>
		<path d="M594.4,198v5.5h12v3.7h-12v5.5h12v3.8h-16.6v-22.4h16.6v3.8L594.4,198L594.4,198z"/>
		<path d="M621.9,207.2h-7.6v9.4h-4.6v-22.4h16.6v22.4h-4.4V207.2z M614.3,198v5.5h7.6V198H614.3z"/>
		<path d="M634.3,216.6h-4.6v-22.4h4.6l4.7,12.3l4.9-12.3h4.4v22.4h-4.4v-9.4l-3.4,9.4h-2.7l-3.5-9.4V216.6z"/>
	</g>
</g>
<text transform="matrix(1 0 0 1 8.4609 239.5262)" class="st2 st3 st4">PAID out to anyone that</text>
<text transform="matrix(1 0 0 1 18.4609 256.3262)" class="st2 st3 st4">brings us distressed</text>
<text transform="matrix(1 0 0 1 69.7609 273.1262)" class="st2 st3 st4">pools</text>
<text transform="matrix(1 0 0 1 251.893 115.7764)" class="st2 st3 st4">$bags will be bought</text>
<text transform="matrix(1 0 0 1 257.093 132.5764)" class="st2 st3 st4">directly on market,</text>
<text transform="matrix(1 0 0 1 246.893 149.3764)" class="st2 st3 st4">creating buy pressure</text>
<g class="st1">
	<path class="st2" d="M484.3,238.1h-1.9v-9.8h1.9V238.1z"/>
	<path class="st2" d="M487.5,238.1h-1.9v-9.8h6.7v1.7h-4.9v2.4h4.9v1.6h-4.9V238.1z"/>
	<path class="st2" d="M499.8,230h-2.5v-1.7h6.7v1.7h-2.3v8.1h-1.9V230z"/>
	<path class="st2" d="M507.2,238.1h-1.9v-9.8h1.9v4.1h3.1v-4.1h1.8v9.8h-1.8V234h-3.1V238.1z"/>
	<path class="st2" d="M515.3,230v2.4h4.9v1.6h-4.9v2.4h4.9v1.7h-6.7v-9.8h6.7v1.7H515.3z"/>
	<path class="st2" d="M521.6,238.1v-9.8h6.7v5.7H526l2.3,4.1h-1.8l-2.4-4.1h-0.7v4.1H521.6z M523.4,230v2.4h3.1V230H523.4z"/>
	<path class="st2" d="M531.6,230v2.4h4.9v1.6h-4.9v2.4h4.9v1.7h-6.7v-9.8h6.7v1.7H531.6z"/>
	<path class="st2" d="M538.6,230.1h-0.8v-1.8h1.9v1.8l-0.8,1.6h-1.1L538.6,230.1z"/>
	<path class="st2" d="M541,234v-5.7h6.7v1.7h-4.9v2.4h4.9v5.7H541v-1.7h5V234H541z"/>
	<path class="st2" d="M554.5,238.1h-1.9v-9.8h1.9l3.1,5.5v-5.5h1.8v9.8h-1.8l-3.1-5.7V238.1z"/>
	<path class="st2" d="M567.5,228.3v9.8h-6.7v-9.8H567.5z M565.7,230h-3.1v6.5h3.1V230z"/>
	<path class="st2" d="M574.2,236.4h4.9v1.7h-6.7v-9.8h6.7v1.7h-4.9V236.4z"/>
	<path class="st2" d="M587.1,228.3v9.8h-6.7v-9.8H587.1z M585.4,230h-3.1v6.5h3.1V230z"/>
	<path class="st2" d="M590.4,238.1h-1.9v-9.8h1.9l1.9,5.4l2-5.4h1.8v9.8h-1.8V234l-1.4,4.1h-1.1l-1.4-4.1V238.1z"/>
	<path class="st2" d="M599.3,238.1h-1.9v-9.8h1.9l1.9,5.4l2-5.4h1.8v9.8h-1.8V234l-1.4,4.1h-1.1l-1.4-4.1V238.1z"/>
	<path class="st2" d="M608.3,238.1h-1.9v-9.8h1.9V238.1z"/>
	<path class="st2" d="M609.6,234v-5.7h6.7v1.7h-4.9v2.4h4.9v5.7h-6.7v-1.7h5V234H609.6z"/>
	<path class="st2" d="M617.7,234v-5.7h6.7v1.7h-4.9v2.4h4.9v5.7h-6.7v-1.7h5V234H617.7z"/>
	<path class="st2" d="M627.7,238.1h-1.9v-9.8h1.9V238.1z"/>
	<path class="st2" d="M635.8,228.3v9.8h-6.7v-9.8H635.8z M634.1,230H631v6.5h3.1V230z"/>
	<path class="st2" d="M639.1,238.1h-1.9v-9.8h1.9l3.1,5.5v-5.5h1.8v9.8h-1.8l-3.1-5.7V238.1z"/>
	<path class="st2" d="M646.1,238.1h-0.8v-1.8h1.9v1.8l-0.8,1.6h-1.1L646.1,238.1z"/>
</g>
<g class="st1">
	<path class="st2" d="M495.2,250.8h-3.1v4.1h-1.9v-9.8h6.7v9.8h-1.8V250.8z M492.1,246.8v2.4h3.1v-2.4H492.1z"/>
	<path class="st2" d="M500.3,254.9h-1.9v-9.8h1.9l3.1,5.5v-5.5h1.8v9.8h-1.8l-3.1-5.7V254.9z"/>
	<path class="st2" d="M514.9,250.8h-3.1v4.1h-1.9v-9.8h6.7v9.8h-1.8V250.8z M511.8,246.8v2.4h3.1v-2.4H511.8z"/>
	<path class="st2" d="M518.1,254.9v-9.8h6l0.7,0.9v8.1l-0.7,0.9H518.1z M523,246.8h-3.1v6.5h3.1V246.8z"/>
	<path class="st2" d="M526.2,254.9v-9.8h6l0.7,0.9v8.1l-0.7,0.9H526.2z M531.1,246.8H528v6.5h3.1V246.8z"/>
	<path class="st2" d="M536.2,254.9h-1.9v-9.8h1.9V254.9z"/>
	<path class="st2" d="M540.1,246.8h-2.5v-1.7h6.7v1.7H542v8.1h-1.9V246.8z"/>
	<path class="st2" d="M547.5,254.9h-1.9v-9.8h1.9V254.9z"/>
	<path class="st2" d="M555.6,245.1v9.8h-6.7v-9.8H555.6z M553.9,246.8h-3.1v6.5h3.1V246.8z"/>
	<path class="st2" d="M558.9,254.9H557v-9.8h1.9l3.1,5.5v-5.5h1.8v9.8H562l-3.1-5.7V254.9z"/>
	<path class="st2" d="M570.1,250.8H567v4.1h-1.9v-9.8h6.7v9.8h-1.8V250.8z M567,246.8v2.4h3.1v-2.4H567z"/>
	<path class="st2" d="M575.1,253.2h4.9v1.7h-6.7v-9.8h1.9V253.2z"/>
	<path class="st2" d="M586.7,254.9h-1.9v-9.8h1.9V254.9z"/>
	<path class="st2" d="M594.8,245.1v9.8H588v-9.8H594.8z M593,246.8h-3.1v6.5h3.1V246.8z"/>
	<path class="st2" d="M599.5,245.1v4.9h-3.4v-4.9H599.5z M598.6,254.9h-1.9l6.4-9.8h1.9L598.6,254.9z M598.6,245.9h-1.5v3.2h1.5
		V245.9z M605.5,250v4.9h-3.4V250H605.5z M604.6,250.8H603v3.2h1.5V250.8z"/>
	<path class="st2" d="M615.1,250.4l-0.8,4.5h-2.2l-1.8-9.8h1.9l0.9,6.6l1-6.6h1.9l1,6.6l0.9-6.6h1.9l-1.8,9.8h-2.2L615.1,250.4z"/>
	<path class="st2" d="M623.1,254.9h-1.9v-9.8h1.9V254.9z"/>
	<path class="st2" d="M626.4,253.2h4.9v1.7h-6.7v-9.8h1.9V253.2z"/>
	<path class="st2" d="M634.5,253.2h4.9v1.7h-6.7v-9.8h1.9V253.2z"/>
</g>
<g class="st1">
	<path class="st2" d="M538.1,261.9v3.7l-0.8,1.2l0.8,1.2v3.6h-6.7v-9.8H538.1z M533.2,263.6v2.4h3.1v-2.4H533.2z M533.2,267.6v2.4
		h3.1v-2.4H533.2z"/>
	<path class="st2" d="M541.3,263.6v2.4h4.9v1.6h-4.9v2.4h4.9v1.7h-6.7v-9.8h6.7v1.7H541.3z"/>
	<path class="st2" d="M557.7,261.9v3.7l-0.8,1.2l0.8,1.2v3.6H551v-9.8H557.7z M552.9,263.6v2.4h3.1v-2.4H552.9z M552.9,267.6v2.4
		h3.1v-2.4H552.9z"/>
	<path class="st2" d="M565.9,261.9v9.8h-6.7v-9.8H565.9z M564.1,263.6H561v6.5h3.1V263.6z"/>
	<path class="st2" d="M572.2,261.9h1.8v9.8h-6.7v-9.8h1.9v8.1h3.1V261.9z"/>
	<path class="st2" d="M578.3,266h3.7v5.7h-6.7v-9.8h6.7v1.7h-4.9v6.5h3.1v-2.4h-2V266z"/>
	<path class="st2" d="M585.3,271.7h-1.9v-9.8h1.9v4.1h3.1v-4.1h1.8v9.8h-1.8v-4.1h-3.1V271.7z"/>
	<path class="st2" d="M594.1,263.6h-2.5v-1.7h6.7v1.7H596v8.1h-1.9V263.6z"/>
</g>
</svg>
