<?xml version="1.0" encoding="utf-8"?>
<!-- Generator: Adobe Illustrator 27.0.1, SVG Export Plug-In . SVG Version: 6.00 Build 0)  -->
<svg version="1.1" id="Layer_1" xmlns="http://www.w3.org/2000/svg" xmlns:xlink="http://www.w3.org/1999/xlink" x="0px" y="0px"
	 viewBox="0 0 650 500" style="enable-background:new 0 0 650 500;" xml:space="preserve">
<style type="text/css">
	.st0{fill:#FF0000;stroke:#231F20;stroke-width:5;stroke-miterlimit:10;}
	.st1{font-family:'SquareFont';}
	.st2{font-size:32px;}
</style>
<g>
	<g>
		<path class="st0" d="M259.1,350.2c0,0,4.7-42.5-21.9-67.6l-30.9-30.1l-14.5,14.2v-55.9h59.1l-13.3,13.8l36,34.5
			c0,0,15.7,12.7,22.3,31.2c0,0,6.7,6.2,6.3,59.9l0,147.8h-43.1V350.2z"/>
		<path class="st0" d="M390.9,350.2c0,0-4.7-42.5,21.9-67.6l30.9-30.1l14.5,14.2v-55.9h-59.1l13.3,13.8l-36,34.5
			c0,0-15.7,12.7-22.3,31.2c0,0-6.7,6.2-6.3,59.9l0,147.8h43.1V350.2z"/>
		<polygon class="st0" points="303.6,498 347.5,498 347.5,184.2 366.5,184.2 325.2,142.5 283.5,184.2 303.6,184.2 		"/>
	</g>
	<text transform="matrix(1.0778 0 0 1 62.7629 142.5079)"><tspan x="0" y="0" class="st1 st2">10%</tspan><tspan x="-58.2" y="38.4" class="st1 st2">COMMISSION</tspan></text>
	<text transform="matrix(1.0778 0 0 1 291.8588 57.2227)"><tspan x="0" y="0" class="st1 st2">70%</tspan><tspan x="-6.3" y="38.4" class="st1 st2">buys</tspan></text>
	<text transform="matrix(1.0778 0 0 1 531.6807 142.5079)"><tspan x="0" y="0" class="st1 st2">20%</tspan><tspan x="-48.3" y="38.4" class="st1 st2">BAGS team</tspan></text>
</g>
</svg>
