<?xml version="1.0" encoding="utf-8"?>
<!-- Generator: Adobe Illustrator 27.0.1, SVG Export Plug-In . SVG Version: 6.00 Build 0)  -->
<svg version="1.1" id="Layer_1" xmlns:serif="http://www.serif.com/"
	 xmlns="http://www.w3.org/2000/svg" xmlns:xlink="http://www.w3.org/1999/xlink" x="0px" y="0px" viewBox="0 0 24 24"
	 style="enable-background:new 0 0 24 24;" xml:space="preserve">
<style type="text/css">
	.st0{fill:#286F50;}
</style>
<path class="st0" d="M21.5,7.1c0,0.2,0,0.4,0,0.6c0,6.5-5,14-14,14v0c-2.7,0-5.3-0.8-7.5-2.2c0.4,0,0.8,0.1,1.2,0.1
	c2.2,0,4.4-0.7,6.1-2.1c-2.1,0-4-1.4-4.6-3.4c0.7,0.1,1.5,0.1,2.2-0.1C2.6,13.5,1,11.5,1,9.2V9.1c0.7,0.4,1.5,0.6,2.2,0.6
	C1,8.3,0.4,5.4,1.7,3.1c2.5,3.1,6.2,4.9,10.1,5.1c-0.4-1.7,0.1-3.5,1.4-4.7c2-1.9,5.1-1.8,7,0.2c1.1-0.2,2.2-0.6,3.1-1.2
	c-0.4,1.1-1.1,2.1-2.2,2.7c1-0.1,1.9-0.4,2.8-0.8C23.3,5.5,22.5,6.4,21.5,7.1L21.5,7.1z"/>
</svg>
