<?xml version="1.0" encoding="utf-8"?>
<!-- Generator: Adobe Illustrator 27.0.1, SVG Export Plug-In . SVG Version: 6.00 Build 0)  -->
<svg version="1.1" id="Layer_1" xmlns:serif="http://www.serif.com/"
	 xmlns="http://www.w3.org/2000/svg" xmlns:xlink="http://www.w3.org/1999/xlink" x="0px" y="0px" viewBox="0 0 24 24"
	 style="enable-background:new 0 0 24 24;" xml:space="preserve">
<style type="text/css">
	.st0{fill:#286F50;}
	.st1{fill-rule:evenodd;clip-rule:evenodd;fill:#286F50;}
</style>
<g>
	<path class="st0" d="M9.8,5.5c-0.3,0-0.3,0-0.1-0.1c0.2,0,0.8,0,1.2,0.1c0.9,0.2,1.7,0.8,2.5,1.7l0.2,0.3l0.3,0
		c1.4-0.2,2.8,0,4,0.5c0.3,0.1,0.8,0.4,0.9,0.5c0,0,0.1,0.2,0.1,0.3c0.1,0.6,0,1-0.1,1.3c-0.1,0.2-0.1,0.2,0,0.4
		c0,0.1,0.2,0.2,0.3,0.2c0.3,0,0.6-0.5,0.8-1.1l0.1-0.3l0.1,0.1c0.6,0.7,1.1,1.7,1.2,2.4l0,0.2L21,11.9c-0.2-0.3-0.4-0.5-0.6-0.6
		c-0.4-0.3-0.9-0.4-2-0.4c-1.1-0.1-1.7-0.1-2.3-0.3c-1-0.3-1.5-0.8-2.7-2.4c-0.5-0.7-0.9-1.1-1.2-1.4C11.4,6,10.7,5.6,9.8,5.5z"/>
	<path class="st0" d="M19,7c0-0.5,0.1-0.8,0.2-1.1c0-0.1,0.1-0.2,0.1-0.2s0,0.1,0,0.2c-0.1,0.3-0.1,0.7,0,1.1
		c0.1,0.6,0.1,0.6,0.7,1.2c0.3,0.3,0.6,0.6,0.7,0.8l0.2,0.3l-0.2-0.2c-0.3-0.2-0.9-0.7-1-0.8c-0.1,0-0.1,0-0.2,0
		c0,0-0.1,0.1-0.1,0.5c0,0.6-0.1,0.9-0.3,1.3c-0.1,0.2-0.1,0.1,0-0.1c0.1-0.2,0.1-0.2,0.1-0.8c0-1.1-0.1-1.3-0.9-1.8
		c-0.2-0.1-0.5-0.3-0.7-0.4C17.4,7.1,17.3,7,17.3,7c0,0,0.8,0.2,1,0.3c0.4,0.2,0.5,0.2,0.6,0.2C18.9,7.4,19,7.3,19,7z"/>
	<path class="st0" d="M10.3,8.9C9.7,8.2,9.4,7,9.5,6.2l0-0.3l0.1,0c0.2,0,0.6,0.2,0.8,0.3C10.9,6.6,11.1,7,11.3,8
		c0.1,0.3,0.1,0.6,0.2,0.8c0.1,0.2,0.3,0.6,0.5,0.9c0.1,0.2,0,0.3-0.3,0.3C11.3,9.9,10.7,9.4,10.3,8.9z"/>
	<path class="st0" d="M18.3,14.3c-2.5-1-3.3-1.8-3.3-3.3c0-0.2,0-0.4,0-0.4c0,0,0.1,0.1,0.2,0.2c0.5,0.4,1.1,0.6,2.6,0.8
		c0.9,0.1,1.4,0.2,1.9,0.4c1.5,0.5,2.4,1.5,2.6,2.9c0.1,0.4,0,1.2-0.1,1.5c-0.1,0.3-0.3,0.9-0.4,0.9c0,0,0-0.1,0-0.2
		c0-0.5-0.3-1-0.7-1.4C20.6,15.2,20,14.9,18.3,14.3z"/>
	<path class="st0" d="M16.6,14.7c0-0.2-0.1-0.4-0.1-0.5L16.4,14l0.1,0.1c0.2,0.2,0.3,0.4,0.4,0.7c0.1,0.2,0.1,0.3,0.1,0.7
		c0,0.4,0,0.5-0.1,0.7c-0.1,0.3-0.3,0.6-0.5,0.8c-0.4,0.5-1,0.7-1.9,0.8c-0.1,0-0.6,0-0.9,0.1c-0.9,0-1.5,0.1-2.1,0.3
		c-0.1,0-0.1,0-0.2,0c0,0,0.4-0.2,0.7-0.4c0.4-0.2,0.9-0.3,1.9-0.5c0.5-0.1,1-0.2,1.1-0.2C16.2,16.8,16.8,15.8,16.6,14.7z"/>
	<path class="st0" d="M17.7,16.7c-0.3-0.7-0.4-1.4-0.2-2c0-0.1,0-0.1,0.1-0.1c0,0,0.1,0,0.2,0.1c0.1,0.1,0.5,0.3,1.3,0.7
		c1,0.5,1.6,1,2,1.4c0.3,0.4,0.6,0.9,0.7,1.5c0.1,0.3,0,1.1-0.1,1.5c-0.3,1.1-0.9,1.9-1.8,2.4c-0.1,0.1-0.2,0.1-0.3,0.1
		s0-0.1,0.1-0.3c0.3-0.6,0.3-1.2,0.1-1.9c-0.1-0.4-0.4-0.9-1-1.8C18.1,17.3,17.9,17,17.7,16.7z"/>
	<path class="st0" d="M8.5,20.4c0.9-0.8,2-1.3,3.1-1.5c0.4-0.1,1.2,0,1.6,0.1c0.7,0.2,1.3,0.5,1.6,1c0.3,0.4,0.4,0.8,0.6,1.7
		c0,0.3,0.1,0.7,0.1,0.8c0.1,0.4,0.3,0.8,0.5,1c0.4,0.3,1.1,0.3,1.7,0c0.1,0,0.2-0.1,0.2-0.1c0,0-0.3,0.2-0.5,0.4
		C17.1,24,16.8,24,16.5,24c-0.6,0-1.1-0.3-1.5-0.9c-0.1-0.1-0.3-0.5-0.4-0.8c-0.4-1-0.7-1.3-1.2-1.6c-0.4-0.3-1-0.3-1.4-0.1
		c-0.6,0.3-0.7,1-0.3,1.4c0.2,0.2,0.5,0.3,0.7,0.4c0.5,0.1,0.9-0.3,0.9-0.8c0-0.3-0.1-0.5-0.4-0.6c-0.4-0.2-0.8,0-0.8,0.4
		c0,0.2,0.1,0.3,0.2,0.3c0.1,0,0.1,0,0,0c-0.4-0.1-0.4-0.5-0.2-0.8c0.3-0.3,1.1-0.2,1.3,0.3c0.1,0.2,0.1,0.6,0,0.8
		c-0.2,0.5-0.8,0.8-1.4,0.7c-0.4-0.1-0.6-0.2-1.1-0.7c-0.9-0.9-1.2-1.1-2.4-1.3l-0.2,0L8.5,20.4z"/>
	<path class="st1" d="M2,0.5C4.9,4,9.3,9.5,9.6,9.8c0.2,0.2,0.1,0.5-0.2,0.7c-0.2,0.1-0.5,0.2-0.7,0.2c-0.2,0-0.4-0.1-0.6-0.3
		c-0.1-0.1-0.6-0.8-1.7-2.5C5.5,6.6,4.8,5.5,4.8,5.5c0,0,0,0,1.5,2.7c1,1.7,1.3,2.3,1.3,2.4c0,0.2,0,0.2-0.2,0.5
		c-0.3,0.4-0.5,0.8-0.6,1.7c-0.1,1-0.5,1.7-1.4,2.8c-0.6,0.7-0.6,0.8-0.8,1.1c-0.2,0.3-0.2,0.5-0.2,1c0,0.5,0,0.8,0.2,1.2
		C4.6,19.2,4.7,19.5,5,20c0.3,0.4,0.5,0.8,0.5,0.9c0,0.1,0,0.1,0.5,0c1.1-0.2,1.9-0.7,2.4-1.2c0.3-0.3,0.4-0.5,0.4-0.9
		c0-0.3,0-0.3-0.1-0.5c-0.1-0.3-0.4-0.5-0.9-0.8c-0.7-0.5-1-0.8-1-1.3c-0.1-0.4,0-0.7,0.4-1.5c0.4-0.8,0.5-1.1,0.5-2
		c0-0.5,0.1-0.7,0.2-0.9c0.2-0.2,0.3-0.2,0.7-0.3c0.6-0.1,1-0.2,1.4-0.6c0.3-0.3,0.4-0.5,0.4-0.9l0-0.3l-0.2-0.2
		C9.7,8.9,1.6,0,1.6,0C1.6,0,1.8,0.2,2,0.5z M5.8,18.1c0.1-0.2,0.1-0.5-0.2-0.7c-0.2-0.1-0.5-0.1-0.5,0.1c0,0,0,0.1,0.1,0.1
		c0.1,0.1,0.1,0.1,0,0.3c-0.1,0.1-0.1,0.3,0,0.3C5.4,18.4,5.7,18.4,5.8,18.1z"/>
	<path class="st1" d="M10.8,11.6c-0.3,0.1-0.6,0.4-0.7,0.7c0,0.2,0,0.6,0.1,0.7c0.1,0.2,0.3,0.2,0.6,0.2c0.7,0,1.3-0.3,1.3-0.7
		c0.1-0.3-0.2-0.7-0.6-0.9C11.4,11.6,11,11.6,10.8,11.6z M11.6,12.2c0.1-0.1,0.1-0.3-0.1-0.4c-0.3-0.2-0.8,0-0.8,0.3
		c0,0.2,0.3,0.3,0.5,0.3C11.3,12.4,11.5,12.3,11.6,12.2z"/>
</g>
</svg>
